<svg version="1.1" viewBox="0.0 0.0 665.8477690288714 382.5590551181102" fill="none" stroke="none" stroke-linecap="square" stroke-miterlimit="10" xmlns:xlink="http://www.w3.org/1999/xlink" xmlns="http://www.w3.org/2000/svg"><clipPath id="p.0"><path d="m0 0l665.8478 0l0 382.55905l-665.8478 0l0 -382.55905z" clip-rule="nonzero"/></clipPath><g clip-path="url(#p.0)"><path fill="#000000" fill-opacity="0.0" d="m0 0l665.8478 0l0 382.55905l-665.8478 0z" fill-rule="evenodd"/><path fill="#cfe2f3" d="m3.4540682 77.84777l447.02362 0l0 208.6614l-447.02362 0z" fill-rule="evenodd"/><path stroke="#000000" stroke-width="1.0" stroke-linejoin="round" stroke-linecap="butt" d="m3.4540682 77.84777l447.02362 0l0 208.6614l-447.02362 0z" fill-rule="evenodd"/><path fill="#ffffff" d="m472.73227 221.8243l0 0c0 -3.966095 3.2151794 -7.181244 7.1812744 -7.181244l137.85794 0c1.904602 0 3.7312012 0.7565918 5.077942 2.1033325c1.3467407 1.3467407 2.1033325 3.1733246 2.1033325 5.0779114l0 28.724121c0 3.966095 -3.215149 7.1812286 -7.1812744 7.1812286l-137.85794 0c-3.966095 0 -7.1812744 -3.2151337 -7.1812744 -7.1812286z" fill-rule="evenodd"/><path stroke="#000000" stroke-width="1.0" stroke-linejoin="round" stroke-linecap="butt" d="m472.73227 221.8243l0 0c0 -3.966095 3.2151794 -7.181244 7.1812744 -7.181244l137.85794 0c1.904602 0 3.7312012 0.7565918 5.077942 2.1033325c1.3467407 1.3467407 2.1033325 3.1733246 2.1033325 5.0779114l0 28.724121c0 3.966095 -3.215149 7.1812286 -7.1812744 7.1812286l-137.85794 0c-3.966095 0 -7.1812744 -3.2151337 -7.1812744 -7.1812286z" fill-rule="evenodd"/><path fill="#000000" d="m517.25586 235.46698q-1.25 -1.578125 -2.125 -3.703125q-0.875 -2.140625 -0.875 -4.4375q0 -2.0 0.65625 -3.84375q0.765625 -2.140625 2.34375 -4.265625l1.09375 0q-1.015625 1.75 -1.34375 2.5q-0.515625 1.171875 -0.8125 2.4375q-0.375 1.59375 -0.375 3.1875q0 4.0625 2.53125 8.125l-1.09375 0zm7.3172607 -3.640625l0 -2.96875l-5.375 0l0 -1.390625l5.65625 -8.046875l1.25 0l0 8.046875l1.671875 0l0 1.390625l-1.671875 0l0 2.96875l-1.53125 0zm0 -4.359375l0 -5.59375l-3.875 5.59375l3.875 0zm6.18396 8.0l-1.09375 0q2.53125 -4.0625 2.53125 -8.125q0 -1.59375 -0.359375 -3.15625q-0.296875 -1.265625 -0.8125 -2.4375q-0.328125 -0.765625 -1.359375 -2.53125l1.09375 0q1.59375 2.125 2.359375 4.265625q0.640625 1.84375 0.640625 3.84375q0 2.296875 -0.875 4.4375q-0.875 2.125 -2.125 3.703125zm18.631592 -7.984375l1.640625 0.40625q-0.515625 2.03125 -1.859375 3.09375q-1.34375 1.0625 -3.28125 1.0625q-2.0 0 -3.265625 -0.8125q-1.25 -0.828125 -1.90625 -2.375q-0.65625 -1.546875 -0.65625 -3.328125q0 -1.9375 0.734375 -3.375q0.75 -1.453125 2.109375 -2.1875q1.375 -0.75 3.015625 -0.75q1.859375 0 3.125 0.953125q1.28125 0.9375 1.765625 2.65625l-1.609375 0.375q-0.4375 -1.34375 -1.265625 -1.953125q-0.8125 -0.625 -2.046875 -0.625q-1.4375 0 -2.40625 0.6875q-0.953125 0.671875 -1.34375 1.828125q-0.375 1.15625 -0.375 2.390625q0 1.578125 0.453125 2.765625q0.46875 1.171875 1.4375 1.765625q0.96875 0.578125 2.109375 0.578125q1.375 0 2.328125 -0.796875q0.953125 -0.796875 1.296875 -2.359375zm3.43573 4.34375l0 -12.40625l1.515625 0l0 12.40625l-1.515625 0zm3.3184814 -4.5q0 -2.484375 1.390625 -3.6875q1.15625 -1.0 2.8125 -1.0q1.859375 0 3.03125 1.21875q1.1875 1.203125 1.1875 3.34375q0 1.734375 -0.53125 2.734375q-0.515625 1.0 -1.515625 1.546875q-0.984375 0.546875 -2.171875 0.546875q-1.875 0 -3.046875 -1.203125q-1.15625 -1.21875 -1.15625 -3.5zm1.5625 0q0 1.734375 0.75 2.59375q0.75 0.859375 1.890625 0.859375q1.140625 0 1.890625 -0.859375q0.75 -0.875 0.75 -2.640625q0 -1.65625 -0.75 -2.515625q-0.75 -0.859375 -1.890625 -0.859375q-1.140625 0 -1.890625 0.859375q-0.75 0.84375 -0.75 2.5625zm14.52771 4.5l0 -1.3125q-1.046875 1.515625 -2.84375 1.515625q-0.796875 0 -1.5 -0.296875q-0.6875 -0.3125 -1.015625 -0.765625q-0.328125 -0.46875 -0.46875 -1.140625q-0.09375 -0.4375 -0.09375 -1.421875l0 -5.5625l1.515625 0l0 4.984375q0 1.1875 0.09375 1.609375q0.15625 0.59375 0.609375 0.9375q0.46875 0.34375 1.15625 0.34375q0.6875 0 1.28125 -0.34375q0.609375 -0.359375 0.859375 -0.953125q0.25 -0.609375 0.25 -1.765625l0 -4.8125l1.515625 0l0 8.984375l-1.359375 0zm9.574585 0l0 -1.140625q-0.84375 1.34375 -2.515625 1.34375q-1.0625 0 -1.96875 -0.59375q-0.90625 -0.59375 -1.40625 -1.65625q-0.484375 -1.0625 -0.484375 -2.4375q0 -1.34375 0.4375 -2.4375q0.453125 -1.09375 1.34375 -1.671875q0.90625 -0.59375 2.015625 -0.59375q0.8125 0 1.4375 0.34375q0.640625 0.34375 1.046875 0.890625l0 -4.453125l1.515625 0l0 12.40625l-1.421875 0zm-4.8125 -4.484375q0 1.71875 0.71875 2.578125q0.734375 0.859375 1.734375 0.859375q0.984375 0 1.6875 -0.8125q0.703125 -0.828125 0.703125 -2.5q0 -1.84375 -0.71875 -2.703125q-0.703125 -0.859375 -1.75 -0.859375q-1.015625 0 -1.703125 0.828125q-0.671875 0.828125 -0.671875 2.609375z" fill-rule="nonzero"/><path fill="#000000" d="m516.9472 252.82635l0 -12.40625l4.671875 0q1.234375 0 1.890625 0.125q0.90625 0.140625 1.515625 0.578125q0.625 0.421875 1.0 1.203125q0.390625 0.765625 0.390625 1.6875q0 1.578125 -1.015625 2.671875q-1.0 1.09375 -3.640625 1.09375l-3.171875 0l0 5.046875l-1.640625 0zm1.640625 -6.5l3.203125 0q1.59375 0 2.25 -0.59375q0.671875 -0.59375 0.671875 -1.671875q0 -0.78125 -0.390625 -1.328125q-0.390625 -0.5625 -1.03125 -0.734375q-0.421875 -0.109375 -1.53125 -0.109375l-3.171875 0l0 4.4375zm15.604614 6.5l0 -1.3125q-1.046875 1.515625 -2.84375 1.515625q-0.796875 0 -1.5 -0.296875q-0.6875 -0.3125 -1.015625 -0.765625q-0.328125 -0.46875 -0.46875 -1.140625q-0.09375 -0.4375 -0.09375 -1.421875l0 -5.5625l1.515625 0l0 4.984375q0 1.1875 0.09375 1.609375q0.15625 0.59375 0.609375 0.9375q0.46875 0.34375 1.15625 0.34375q0.6875 0 1.28125 -0.34375q0.609375 -0.359375 0.859375 -0.953125q0.25 -0.609375 0.25 -1.765625l0 -4.8125l1.515625 0l0 8.984375l-1.359375 0zm5.15271 0l-1.40625 0l0 -12.40625l1.515625 0l0 4.421875q0.96875 -1.203125 2.46875 -1.203125q0.828125 0 1.5625 0.34375q0.734375 0.328125 1.21875 0.9375q0.484375 0.59375 0.75 1.453125q0.265625 0.859375 0.265625 1.828125q0 2.3125 -1.140625 3.578125q-1.140625 1.25 -2.734375 1.25q-1.59375 0 -2.5 -1.328125l0 1.125zm-0.015625 -4.5625q0 1.625 0.4375 2.34375q0.71875 1.171875 1.953125 1.171875q1.0 0 1.71875 -0.859375q0.734375 -0.875 0.734375 -2.59375q0 -1.765625 -0.703125 -2.59375q-0.703125 -0.84375 -1.6875 -0.84375q-1.0 0 -1.734375 0.875q-0.71875 0.859375 -0.71875 2.5zm7.105835 4.78125l3.59375 -12.828125l1.21875 0l-3.578125 12.828125l-1.234375 0zm5.595581 -4.203125l1.546875 -0.140625q0.109375 0.9375 0.5 1.53125q0.40625 0.59375 1.25 0.96875q0.859375 0.359375 1.90625 0.359375q0.9375 0 1.65625 -0.265625q0.734375 -0.28125 1.078125 -0.765625q0.34375 -0.5 0.34375 -1.078125q0 -0.578125 -0.34375 -1.015625q-0.328125 -0.4375 -1.109375 -0.734375q-0.5 -0.1875 -2.203125 -0.59375q-1.703125 -0.421875 -2.390625 -0.78125q-0.890625 -0.46875 -1.328125 -1.15625q-0.4375 -0.6875 -0.4375 -1.546875q0 -0.9375 0.53125 -1.75q0.53125 -0.8125 1.546875 -1.234375q1.03125 -0.421875 2.296875 -0.421875q1.375 0 2.421875 0.4375q1.0625 0.4375 1.625 1.3125q0.5625 0.859375 0.609375 1.953125l-1.578125 0.109375q-0.125 -1.171875 -0.859375 -1.765625q-0.734375 -0.609375 -2.15625 -0.609375q-1.484375 0 -2.171875 0.546875q-0.6875 0.546875 -0.6875 1.3125q0 0.671875 0.484375 1.109375q0.484375 0.421875 2.484375 0.875q2.0 0.453125 2.734375 0.796875q1.09375 0.5 1.609375 1.265625q0.515625 0.765625 0.515625 1.765625q0 0.984375 -0.578125 1.859375q-0.5625 0.875 -1.625 1.375q-1.0625 0.484375 -2.390625 0.484375q-1.6875 0 -2.828125 -0.484375q-1.125 -0.5 -1.78125 -1.484375q-0.640625 -0.984375 -0.671875 -2.234375zm17.807678 3.984375l0 -1.3125q-1.046875 1.515625 -2.84375 1.515625q-0.796875 0 -1.5 -0.296875q-0.6875 -0.3125 -1.015625 -0.765625q-0.328125 -0.46875 -0.46875 -1.140625q-0.09375 -0.4375 -0.09375 -1.421875l0 -5.5625l1.515625 0l0 4.984375q0 1.1875 0.09375 1.609375q0.15625 0.59375 0.609375 0.9375q0.46875 0.34375 1.15625 0.34375q0.6875 0 1.28125 -0.34375q0.609375 -0.359375 0.859375 -0.953125q0.25 -0.609375 0.25 -1.765625l0 -4.8125l1.515625 0l0 8.984375l-1.359375 0zm5.15271 0l-1.40625 0l0 -12.40625l1.515625 0l0 4.421875q0.96875 -1.203125 2.46875 -1.203125q0.828125 0 1.5625 0.34375q0.734375 0.328125 1.21875 0.9375q0.484375 0.59375 0.75 1.453125q0.265625 0.859375 0.265625 1.828125q0 2.3125 -1.140625 3.578125q-1.140625 1.25 -2.734375 1.25q-1.59375 0 -2.5 -1.328125l0 1.125zm-0.015625 -4.5625q0 1.625 0.4375 2.34375q0.71875 1.171875 1.953125 1.171875q1.0 0 1.71875 -0.859375q0.734375 -0.875 0.734375 -2.59375q0 -1.765625 -0.703125 -2.59375q-0.703125 -0.84375 -1.6875 -0.84375q-1.0 0 -1.734375 0.875q-0.71875 0.859375 -0.71875 2.5z" fill-rule="nonzero"/><path fill="#ffffff" d="m35.839893 17.275751l0 0c0 -4.444459 3.6029472 -8.047404 8.047405 -8.047404l144.6611 0c2.1342926 0 4.181183 0.8478489 5.6903687 2.35703c1.5091858 1.509181 2.3570251 3.5560703 2.3570251 5.6903744l0 32.188652c0 4.444462 -3.6029358 8.047405 -8.047394 8.047405l-144.6611 0c-4.444458 0 -8.047405 -3.6029434 -8.047405 -8.047405z" fill-rule="evenodd"/><path stroke="#000000" stroke-width="1.0" stroke-linejoin="round" stroke-linecap="butt" d="m35.839893 17.275751l0 0c0 -4.444459 3.6029472 -8.047404 8.047405 -8.047404l144.6611 0c2.1342926 0 4.181183 0.8478489 5.6903687 2.35703c1.5091858 1.509181 2.3570251 3.5560703 2.3570251 5.6903744l0 32.188652c0 4.444462 -3.6029358 8.047405 -8.047394 8.047405l-144.6611 0c-4.444458 0 -8.047405 -3.6029434 -8.047405 -8.047405z" fill-rule="evenodd"/><path fill="#000000" d="m55.918846 43.150703q-1.25 -1.578125 -2.125 -3.703125q-0.875 -2.140625 -0.875 -4.4375q0 -2.0 0.65625 -3.84375q0.765625 -2.140625 2.34375 -4.265625l1.09375 0q-1.015625 1.75 -1.34375 2.5q-0.515625 1.171875 -0.8125 2.4375q-0.375 1.59375 -0.375 3.1875q0 4.0625 2.53125 8.125l-1.09375 0zm8.176651 -3.640625l-1.515625 0l0 -9.703125q-0.5625 0.515625 -1.453125 1.046875q-0.890625 0.53125 -1.59375 0.78125l0 -1.46875q1.28125 -0.59375 2.234375 -1.453125q0.953125 -0.859375 1.34375 -1.65625l0.984375 0l0 12.453125zm5.324585 3.640625l-1.09375 0q2.53125 -4.0625 2.53125 -8.125q0 -1.59375 -0.359375 -3.15625q-0.296875 -1.265625 -0.8125 -2.4375q-0.328125 -0.765625 -1.359375 -2.53125l1.09375 0q1.59375 2.125 2.359375 4.265625q0.640625 1.84375 0.640625 3.84375q0 2.296875 -0.875 4.4375q-0.875 2.125 -2.125 3.703125zm9.725342 -3.640625l0 -12.40625l2.46875 0l2.9375 8.78125q0.40625 1.234375 0.59375 1.84375q0.21875 -0.6875 0.65625 -2.0l2.984375 -8.625l2.203125 0l0 12.40625l-1.578125 0l0 -10.375l-3.609375 10.375l-1.484375 0l-3.578125 -10.5625l0 10.5625l-1.59375 0zm23.887589 -1.328125q1.140625 0.78125 2.109375 1.15625l-0.484375 1.140625q-1.328125 -0.484375 -2.65625 -1.53125q-1.390625 0.78125 -3.046875 0.78125q-1.6875 0 -3.0625 -0.8125q-1.375 -0.8125 -2.109375 -2.28125q-0.734375 -1.484375 -0.734375 -3.328125q0 -1.828125 0.734375 -3.328125q0.75 -1.515625 2.125 -2.296875q1.375 -0.796875 3.078125 -0.796875q1.71875 0 3.09375 0.828125q1.375 0.8125 2.09375 2.28125q0.734375 1.453125 0.734375 3.3125q0 1.53125 -0.46875 2.75q-0.46875 1.21875 -1.40625 2.125zm-3.609375 -2.09375q1.421875 0.390625 2.34375 1.1875q1.453125 -1.328125 1.453125 -3.96875q0 -1.515625 -0.515625 -2.640625q-0.515625 -1.125 -1.5 -1.734375q-0.984375 -0.625 -2.21875 -0.625q-1.828125 0 -3.046875 1.25q-1.203125 1.25 -1.203125 3.75q0 2.421875 1.1875 3.71875q1.203125 1.296875 3.0625 1.296875q0.890625 0 1.65625 -0.328125q-0.765625 -0.5 -1.625 -0.71875l0.40625 -1.1875zm10.853378 3.421875l0 -10.9375l-4.09375 0l0 -1.46875l9.828125 0l0 1.46875l-4.09375 0l0 10.9375l-1.640625 0zm10.584717 0l0 -10.9375l-4.09375 0l0 -1.46875l9.828125 0l0 1.46875l-4.09375 0l0 10.9375l-1.640625 0zm13.132759 0l-1.40625 0l0 -12.40625l1.515625 0l0 4.421875q0.96875 -1.203125 2.46875 -1.203125q0.828125 0 1.5625 0.34375q0.734375 0.328125 1.21875 0.9375q0.484375 0.59375 0.75 1.453125q0.265625 0.859375 0.265625 1.828125q0 2.3125 -1.140625 3.578125q-1.140625 1.25 -2.734375 1.25q-1.59375 0 -2.5 -1.328125l0 1.125zm-0.015625 -4.5625q0 1.625 0.4375 2.34375q0.71875 1.171875 1.953125 1.171875q1.0 0 1.71875 -0.859375q0.734375 -0.875 0.734375 -2.59375q0 -1.765625 -0.703125 -2.59375q-0.703125 -0.84375 -1.6875 -0.84375q-1.0 0 -1.734375 0.875q-0.71875 0.859375 -0.71875 2.5zm8.230835 4.5625l0 -8.984375l1.375 0l0 1.359375q0.515625 -0.953125 0.953125 -1.25q0.453125 -0.3125 0.984375 -0.3125q0.78125 0 1.5625 0.484375l-0.515625 1.421875q-0.5625 -0.328125 -1.125 -0.328125q-0.5 0 -0.890625 0.296875q-0.390625 0.296875 -0.5625 0.828125q-0.265625 0.8125 -0.265625 1.78125l0 4.703125l-1.515625 0zm5.223526 -4.5q0 -2.484375 1.390625 -3.6875q1.15625 -1.0 2.8125 -1.0q1.859375 0 3.03125 1.21875q1.1875 1.203125 1.1875 3.34375q0 1.734375 -0.53125 2.734375q-0.515625 1.0 -1.515625 1.546875q-0.984375 0.546875 -2.171875 0.546875q-1.875 0 -3.046875 -1.203125q-1.15625 -1.21875 -1.15625 -3.5zm1.5625 0q0 1.734375 0.75 2.59375q0.75 0.859375 1.890625 0.859375q1.140625 0 1.890625 -0.859375q0.75 -0.875 0.75 -2.640625q0 -1.65625 -0.75 -2.515625q-0.75 -0.859375 -1.890625 -0.859375q-1.140625 0 -1.890625 0.859375q-0.75 0.84375 -0.75 2.5625zm8.65271 4.5l0 -12.40625l1.515625 0l0 7.078125l3.609375 -3.65625l1.96875 0l-3.4375 3.328125l3.78125 5.65625l-1.875 0l-2.96875 -4.59375l-1.078125 1.03125l0 3.5625l-1.515625 0zm14.8046875 -2.890625l1.5625 0.1875q-0.359375 1.390625 -1.375 2.15625q-1.0 0.75 -2.5625 0.75q-1.984375 0 -3.140625 -1.203125q-1.140625 -1.21875 -1.140625 -3.421875q0 -2.265625 1.15625 -3.515625q1.171875 -1.25 3.03125 -1.25q1.8125 0 2.953125 1.234375q1.140625 1.21875 1.140625 3.4375q0 0.140625 -0.015625 0.40625l-6.703125 0q0.09375 1.484375 0.84375 2.28125q0.75 0.78125 1.875 0.78125q0.84375 0 1.4375 -0.4375q0.59375 -0.4375 0.9375 -1.40625zm-5.0 -2.46875l5.015625 0q-0.109375 -1.125 -0.578125 -1.703125q-0.734375 -0.875 -1.890625 -0.875q-1.046875 0 -1.765625 0.703125q-0.703125 0.703125 -0.78125 1.875zm8.46521 5.359375l0 -8.984375l1.375 0l0 1.359375q0.515625 -0.953125 0.953125 -1.25q0.453125 -0.3125 0.984375 -0.3125q0.78125 0 1.5625 0.484375l-0.515625 1.421875q-0.5625 -0.328125 -1.125 -0.328125q-0.5 0 -0.890625 0.296875q-0.390625 0.296875 -0.5625 0.828125q-0.265625 0.8125 -0.265625 1.78125l0 4.703125l-1.515625 0z" fill-rule="nonzero"/><path fill="#000000" fill-opacity="0.0" d="m116.21785 57.51181l0 67.81103" fill-rule="evenodd"/><path stroke="#0000ff" stroke-width="1.0" stroke-linejoin="round" stroke-linecap="butt" d="m116.21785 57.51181l0 61.811028" fill-rule="evenodd"/><path fill="#0000ff" stroke="#0000ff" stroke-width="1.0" stroke-linecap="butt" d="m114.56612 119.32284l1.6517334 4.5380936l1.6517334 -4.5380936z" fill-rule="evenodd"/><path fill="#000000" fill-opacity="0.0" d="m116.21785 171.08398l0 65.10237l356.5039 0" fill-rule="evenodd"/><path stroke="#0000ff" stroke-width="1.0" stroke-linejoin="round" stroke-linecap="butt" d="m116.21785 171.08398l0 65.10237l350.5039 0" fill-rule="evenodd"/><path fill="#0000ff" stroke="#0000ff" stroke-width="1.0" stroke-linecap="butt" d="m466.72177 237.83809l4.5381165 -1.6517334l-4.5381165 -1.6517334z" fill-rule="evenodd"/><path fill="#000000" fill-opacity="0.0" d="m264.57217 263.2546l195.77954 0l0 32.31494l-195.77954 0z" fill-rule="evenodd"/><path fill="#000000" d="m274.36905 282.4946l0 -7.625l1.515625 0l1.796875 5.390625q0.25 0.765625 0.375 1.140625q0.125 -0.421875 0.40625 -1.234375l1.828125 -5.296875l1.34375 0l0 7.625l-0.96875 0l0 -6.390625l-2.21875 6.390625l-0.90625 0l-2.203125 -6.5l0 6.5l-0.96875 0zm14.6892395 -0.8125q0.703125 0.484375 1.296875 0.703125l-0.296875 0.703125q-0.828125 -0.296875 -1.640625 -0.9375q-0.859375 0.46875 -1.875 0.46875q-1.046875 0 -1.890625 -0.5q-0.828125 -0.5 -1.296875 -1.390625q-0.453125 -0.90625 -0.453125 -2.046875q0 -1.125 0.453125 -2.046875q0.46875 -0.9375 1.3125 -1.421875q0.84375 -0.484375 1.890625 -0.484375q1.0625 0 1.90625 0.5q0.84375 0.5 1.28125 1.40625q0.453125 0.90625 0.453125 2.046875q0 0.9375 -0.28125 1.6875q-0.28125 0.75 -0.859375 1.3125zm-2.234375 -1.296875q0.875 0.25 1.453125 0.734375q0.890625 -0.8125 0.890625 -2.4375q0 -0.9375 -0.328125 -1.625q-0.3125 -0.6875 -0.921875 -1.0625q-0.59375 -0.390625 -1.359375 -0.390625q-1.125 0 -1.875 0.78125q-0.734375 0.765625 -0.734375 2.296875q0 1.484375 0.734375 2.28125q0.734375 0.796875 1.875 0.796875q0.546875 0 1.03125 -0.203125q-0.484375 -0.3125 -1.0 -0.4375l0.234375 -0.734375zm6.679413 2.109375l0 -6.734375l-2.515625 0l0 -0.890625l6.046875 0l0 0.890625l-2.53125 0l0 6.734375l-1.0 0zm6.509247 0l0 -6.734375l-2.515625 0l0 -0.890625l6.046875 0l0 0.890625l-2.53125 0l0 6.734375l-1.0 0zm7.0897217 -3.328125l0 -0.875l5.0625 -2.140625l0 0.9375l-4.015625 1.640625l4.015625 1.65625l0 0.9375l-5.0625 -2.15625zm5.9887085 1.03125l0 -0.9375l2.875 0l0 0.9375l-2.875 0zm8.8454895 -1.03125l-5.0625 2.15625l0 -0.9375l4.0 -1.65625l-4.0 -1.640625l0 -0.9375l5.0625 2.140625l0 0.875zm9.808716 0.65625l1.015625 0.25q-0.328125 1.25 -1.15625 1.90625q-0.8125 0.640625 -2.015625 0.640625q-1.234375 0 -2.0 -0.5q-0.765625 -0.5 -1.171875 -1.453125q-0.40625 -0.953125 -0.40625 -2.046875q0 -1.1875 0.453125 -2.078125q0.453125 -0.890625 1.296875 -1.34375q0.84375 -0.46875 1.84375 -0.46875q1.15625 0 1.9375 0.59375q0.78125 0.578125 1.078125 1.640625l-0.984375 0.234375q-0.265625 -0.84375 -0.78125 -1.21875q-0.5 -0.375 -1.265625 -0.375q-0.875 0 -1.46875 0.421875q-0.59375 0.421875 -0.828125 1.140625q-0.234375 0.703125 -0.234375 1.453125q0 0.96875 0.28125 1.703125q0.28125 0.71875 0.875 1.078125q0.59375 0.359375 1.296875 0.359375q0.84375 0 1.4375 -0.484375q0.59375 -0.5 0.796875 -1.453125zm2.1174927 2.671875l0 -7.625l0.9375 0l0 7.625l-0.9375 0zm2.0393372 -2.765625q0 -1.53125 0.84375 -2.265625q0.71875 -0.625 1.734375 -0.625q1.140625 0 1.859375 0.75q0.734375 0.75 0.734375 2.0625q0 1.0625 -0.328125 1.6875q-0.3125 0.609375 -0.921875 0.953125q-0.609375 0.328125 -1.34375 0.328125q-1.15625 0 -1.875 -0.734375q-0.703125 -0.75 -0.703125 -2.15625zm0.953125 0q0 1.0625 0.46875 1.59375q0.46875 0.53125 1.15625 0.53125q0.703125 0 1.15625 -0.53125q0.46875 -0.53125 0.46875 -1.625q0 -1.015625 -0.46875 -1.546875q-0.453125 -0.53125 -1.15625 -0.53125q-0.6875 0 -1.15625 0.53125q-0.46875 0.515625 -0.46875 1.578125zm8.942139 2.765625l0 -0.8125q-0.65625 0.9375 -1.75 0.9375q-0.5 0 -0.921875 -0.1875q-0.421875 -0.1875 -0.625 -0.46875q-0.203125 -0.28125 -0.296875 -0.703125q-0.046875 -0.265625 -0.046875 -0.875l0 -3.421875l0.9375 0l0 3.0625q0 0.734375 0.046875 1.0q0.09375 0.359375 0.375 0.578125q0.296875 0.203125 0.703125 0.203125q0.421875 0 0.796875 -0.203125q0.375 -0.21875 0.515625 -0.59375q0.15625 -0.375 0.15625 -1.078125l0 -2.96875l0.9375 0l0 5.53125l-0.828125 0zm5.879608 0l0 -0.703125q-0.515625 0.828125 -1.546875 0.828125q-0.65625 0 -1.21875 -0.359375q-0.546875 -0.375 -0.859375 -1.015625q-0.296875 -0.65625 -0.296875 -1.5q0 -0.828125 0.28125 -1.5q0.28125 -0.6875 0.828125 -1.046875q0.546875 -0.359375 1.234375 -0.359375q0.5 0 0.890625 0.21875q0.390625 0.203125 0.625 0.546875l0 -2.734375l0.9375 0l0 7.625l-0.875 0zm-2.953125 -2.75q0 1.046875 0.4375 1.578125q0.453125 0.53125 1.0625 0.53125q0.609375 0 1.03125 -0.5q0.4375 -0.515625 0.4375 -1.53125q0 -1.140625 -0.4375 -1.671875q-0.4375 -0.53125 -1.078125 -0.53125q-0.609375 0 -1.03125 0.515625q-0.421875 0.5 -0.421875 1.609375zm8.387146 2.75l0 -7.625l2.875 0q0.75 0 1.15625 0.0625q0.5625 0.09375 0.9375 0.359375q0.390625 0.265625 0.609375 0.75q0.234375 0.46875 0.234375 1.03125q0 0.96875 -0.625 1.65625q-0.609375 0.671875 -2.234375 0.671875l-1.953125 0l0 3.09375l-1.0 0zm1.0 -4.0l1.96875 0q0.984375 0 1.390625 -0.359375q0.421875 -0.375 0.421875 -1.03125q0 -0.484375 -0.25 -0.8125q-0.234375 -0.34375 -0.640625 -0.453125q-0.25 -0.078125 -0.9375 -0.078125l-1.953125 0l0 2.734375zm9.6076355 4.0l0 -0.8125q-0.65625 0.9375 -1.75 0.9375q-0.5 0 -0.921875 -0.1875q-0.421875 -0.1875 -0.625 -0.46875q-0.203125 -0.28125 -0.296875 -0.703125q-0.046875 -0.265625 -0.046875 -0.875l0 -3.421875l0.9375 0l0 3.0625q0 0.734375 0.046875 1.0q0.09375 0.359375 0.375 0.578125q0.296875 0.203125 0.703125 0.203125q0.421875 0 0.796875 -0.203125q0.375 -0.21875 0.515625 -0.59375q0.15625 -0.375 0.15625 -1.078125l0 -2.96875l0.9375 0l0 5.53125l-0.828125 0zm3.1608887 0l-0.859375 0l0 -7.625l0.9375 0l0 2.71875q0.59375 -0.75 1.5 -0.75q0.515625 0 0.96875 0.21875q0.453125 0.203125 0.75 0.578125q0.296875 0.359375 0.453125 0.890625q0.171875 0.53125 0.171875 1.125q0 1.421875 -0.703125 2.203125q-0.703125 0.765625 -1.6875 0.765625q-0.96875 0 -1.53125 -0.8125l0 0.6875zm0 -2.796875q0 0.984375 0.265625 1.421875q0.4375 0.734375 1.1875 0.734375q0.625 0 1.0625 -0.53125q0.453125 -0.546875 0.453125 -1.59375q0 -1.078125 -0.4375 -1.59375q-0.421875 -0.515625 -1.03125 -0.515625q-0.609375 0 -1.0625 0.53125q-0.4375 0.53125 -0.4375 1.546875zm4.363983 2.921875l2.21875 -7.890625l0.734375 0l-2.203125 7.890625l-0.75 0zm3.4450378 -2.578125l0.953125 -0.078125q0.0625 0.5625 0.3125 0.9375q0.25 0.359375 0.765625 0.59375q0.515625 0.21875 1.171875 0.21875q0.578125 0 1.015625 -0.171875q0.4375 -0.171875 0.65625 -0.46875q0.21875 -0.296875 0.21875 -0.65625q0 -0.359375 -0.21875 -0.625q-0.203125 -0.265625 -0.671875 -0.4375q-0.3125 -0.125 -1.359375 -0.375q-1.046875 -0.25 -1.46875 -0.484375q-0.546875 -0.28125 -0.828125 -0.703125q-0.265625 -0.421875 -0.265625 -0.953125q0 -0.578125 0.328125 -1.078125q0.328125 -0.5 0.953125 -0.765625q0.640625 -0.265625 1.40625 -0.265625q0.84375 0 1.484375 0.28125q0.65625 0.265625 1.0 0.796875q0.359375 0.53125 0.390625 1.203125l-0.96875 0.078125q-0.078125 -0.71875 -0.53125 -1.09375q-0.453125 -0.375 -1.328125 -0.375q-0.921875 0 -1.34375 0.34375q-0.40625 0.328125 -0.40625 0.8125q0 0.40625 0.296875 0.671875q0.28125 0.265625 1.515625 0.546875q1.234375 0.28125 1.6875 0.484375q0.671875 0.3125 0.984375 0.78125q0.3125 0.46875 0.3125 1.078125q0 0.609375 -0.34375 1.15625q-0.34375 0.53125 -1.0 0.828125q-0.65625 0.296875 -1.46875 0.296875q-1.046875 0 -1.75 -0.296875q-0.6875 -0.296875 -1.09375 -0.90625q-0.390625 -0.609375 -0.40625 -1.375zm10.9513855 2.453125l0 -0.8125q-0.65625 0.9375 -1.75 0.9375q-0.5 0 -0.921875 -0.1875q-0.421875 -0.1875 -0.625 -0.46875q-0.203125 -0.28125 -0.296875 -0.703125q-0.046875 -0.265625 -0.046875 -0.875l0 -3.421875l0.9375 0l0 3.0625q0 0.734375 0.046875 1.0q0.09375 0.359375 0.375 0.578125q0.296875 0.203125 0.703125 0.203125q0.421875 0 0.796875 -0.203125q0.375 -0.21875 0.515625 -0.59375q0.15625 -0.375 0.15625 -1.078125l0 -2.96875l0.9375 0l0 5.53125l-0.828125 0zm3.1608582 0l-0.859375 0l0 -7.625l0.9375 0l0 2.71875q0.59375 -0.75 1.5 -0.75q0.515625 0 0.96875 0.21875q0.453125 0.203125 0.75 0.578125q0.296875 0.359375 0.453125 0.890625q0.171875 0.53125 0.171875 1.125q0 1.421875 -0.703125 2.203125q-0.703125 0.765625 -1.6875 0.765625q-0.96875 0 -1.53125 -0.8125l0 0.6875zm0 -2.796875q0 0.984375 0.265625 1.421875q0.4375 0.734375 1.1875 0.734375q0.625 0 1.0625 -0.53125q0.453125 -0.546875 0.453125 -1.59375q0 -1.078125 -0.4375 -1.59375q-0.421875 -0.515625 -1.03125 -0.515625q-0.609375 0 -1.0625 0.53125q-0.4375 0.53125 -0.4375 1.546875zm11.637146 0.765625l0.921875 0.125q-0.15625 0.953125 -0.78125 1.5q-0.625 0.53125 -1.53125 0.53125q-1.125 0 -1.8125 -0.734375q-0.6875 -0.75 -0.6875 -2.125q0 -0.90625 0.296875 -1.578125q0.296875 -0.671875 0.890625 -1.0q0.609375 -0.34375 1.328125 -0.34375q0.890625 0 1.46875 0.46875q0.578125 0.453125 0.734375 1.28125l-0.90625 0.140625q-0.140625 -0.546875 -0.46875 -0.828125q-0.328125 -0.28125 -0.796875 -0.28125q-0.703125 0 -1.15625 0.515625q-0.4375 0.5 -0.4375 1.59375q0 1.109375 0.421875 1.625q0.4375 0.5 1.125 0.5q0.546875 0 0.90625 -0.34375q0.375 -0.34375 0.484375 -1.046875zm1.375 -0.734375q0 -1.53125 0.84375 -2.265625q0.71875 -0.625 1.734375 -0.625q1.140625 0 1.859375 0.75q0.734375 0.75 0.734375 2.0625q0 1.0625 -0.328125 1.6875q-0.3125 0.609375 -0.921875 0.953125q-0.609375 0.328125 -1.34375 0.328125q-1.15625 0 -1.875 -0.734375q-0.703125 -0.75 -0.703125 -2.15625zm0.953125 0q0 1.0625 0.46875 1.59375q0.46875 0.53125 1.15625 0.53125q0.703125 0 1.15625 -0.53125q0.46875 -0.53125 0.46875 -1.625q0 -1.015625 -0.46875 -1.546875q-0.453125 -0.53125 -1.15625 -0.53125q-0.6875 0 -1.15625 0.53125q-0.46875 0.515625 -0.46875 1.578125zm5.3171387 2.765625l0 -5.53125l0.84375 0l0 0.796875q0.609375 -0.921875 1.75 -0.921875q0.5 0 0.921875 0.1875q0.421875 0.171875 0.625 0.46875q0.21875 0.296875 0.296875 0.6875q0.046875 0.265625 0.046875 0.921875l0 3.390625l-0.9375 0l0 -3.359375q0 -0.578125 -0.109375 -0.859375q-0.109375 -0.28125 -0.390625 -0.453125q-0.265625 -0.171875 -0.640625 -0.171875q-0.59375 0 -1.03125 0.390625q-0.4375 0.375 -0.4375 1.4375l0 3.015625l-0.9375 0zm5.926483 0l0 -5.53125l0.84375 0l0 0.796875q0.609375 -0.921875 1.75 -0.921875q0.5 0 0.921875 0.1875q0.421875 0.171875 0.625 0.46875q0.21875 0.296875 0.296875 0.6875q0.046875 0.265625 0.046875 0.921875l0 3.390625l-0.9375 0l0 -3.359375q0 -0.578125 -0.109375 -0.859375q-0.109375 -0.28125 -0.390625 -0.453125q-0.265625 -0.171875 -0.640625 -0.171875q-0.59375 0 -1.03125 0.390625q-0.4375 0.375 -0.4375 1.4375l0 3.015625l-0.9375 0zm9.707764 -1.78125l0.96875 0.125q-0.234375 0.84375 -0.859375 1.3125q-0.609375 0.46875 -1.578125 0.46875q-1.203125 0 -1.921875 -0.75q-0.703125 -0.75 -0.703125 -2.09375q0 -1.390625 0.71875 -2.15625q0.71875 -0.78125 1.859375 -0.78125q1.109375 0 1.8125 0.765625q0.703125 0.75 0.703125 2.125q0 0.078125 0 0.234375l-4.125 0q0.046875 0.921875 0.515625 1.40625q0.46875 0.484375 1.15625 0.484375q0.515625 0 0.875 -0.265625q0.359375 -0.28125 0.578125 -0.875zm-3.078125 -1.515625l3.09375 0q-0.0625 -0.6875 -0.359375 -1.046875q-0.453125 -0.53125 -1.15625 -0.53125q-0.640625 0 -1.09375 0.4375q-0.4375 0.421875 -0.484375 1.140625zm8.832733 1.265625l0.921875 0.125q-0.15625 0.953125 -0.78125 1.5q-0.625 0.53125 -1.53125 0.53125q-1.125 0 -1.8125 -0.734375q-0.6875 -0.75 -0.6875 -2.125q0 -0.90625 0.296875 -1.578125q0.296875 -0.671875 0.890625 -1.0q0.609375 -0.34375 1.328125 -0.34375q0.890625 0 1.46875 0.46875q0.578125 0.453125 0.734375 1.28125l-0.90625 0.140625q-0.140625 -0.546875 -0.46875 -0.828125q-0.328125 -0.28125 -0.796875 -0.28125q-0.703125 0 -1.15625 0.515625q-0.4375 0.5 -0.4375 1.59375q0 1.109375 0.421875 1.625q0.4375 0.5 1.125 0.5q0.546875 0 0.90625 -0.34375q0.375 -0.34375 0.484375 -1.046875zm3.765625 1.1875l0.125 0.828125q-0.390625 0.09375 -0.703125 0.09375q-0.5 0 -0.78125 -0.15625q-0.28125 -0.171875 -0.40625 -0.4375q-0.109375 -0.265625 -0.109375 -1.109375l0 -3.171875l-0.6875 0l0 -0.734375l0.6875 0l0 -1.359375l0.9375 -0.5625l0 1.921875l0.9375 0l0 0.734375l-0.9375 0l0 3.234375q0 0.390625 0.046875 0.515625q0.046875 0.109375 0.15625 0.1875q0.109375 0.0625 0.328125 0.0625q0.15625 0 0.40625 -0.046875zm0.57003784 -1.921875q0 -1.53125 0.84375 -2.265625q0.71875 -0.625 1.734375 -0.625q1.140625 0 1.859375 0.75q0.734375 0.75 0.734375 2.0625q0 1.0625 -0.328125 1.6875q-0.3125 0.609375 -0.921875 0.953125q-0.609375 0.328125 -1.34375 0.328125q-1.15625 0 -1.875 -0.734375q-0.703125 -0.75 -0.703125 -2.15625zm0.953125 0q0 1.0625 0.46875 1.59375q0.46875 0.53125 1.15625 0.53125q0.703125 0 1.15625 -0.53125q0.46875 -0.53125 0.46875 -1.625q0 -1.015625 -0.46875 -1.546875q-0.453125 -0.53125 -1.15625 -0.53125q-0.6875 0 -1.15625 0.53125q-0.46875 0.515625 -0.46875 1.578125zm5.301483 2.765625l0 -5.53125l0.84375 0l0 0.84375q0.328125 -0.59375 0.59375 -0.78125q0.28125 -0.1875 0.609375 -0.1875q0.46875 0 0.953125 0.3125l-0.3125 0.859375q-0.34375 -0.203125 -0.6875 -0.203125q-0.3125 0 -0.5625 0.1875q-0.234375 0.1875 -0.34375 0.515625q-0.15625 0.5 -0.15625 1.09375l0 2.890625l-0.9375 0z" fill-rule="nonzero"/><path fill="#000000" fill-opacity="0.0" d="m279.18896 148.18636l-82.58267 0.03149414" fill-rule="evenodd"/><path stroke="#ff0000" stroke-width="1.0" stroke-linejoin="round" stroke-linecap="butt" d="m279.18896 148.18636l-76.58267 0.029205322" fill-rule="evenodd"/><path fill="#ff0000" stroke="#ff0000" stroke-width="1.0" stroke-linecap="butt" d="m202.60567 146.56383l-4.5374603 1.6534576l4.538727 1.6500092z" fill-rule="evenodd"/><path fill="#000000" fill-opacity="0.0" d="m35.839893 148.2021l-24.999998 0l0 -114.83465l25.06299 0" fill-rule="evenodd"/><path stroke="#ff0000" stroke-width="1.0" stroke-linejoin="round" stroke-linecap="butt" d="m35.839893 148.2021l-24.999998 0l0 -114.83465l19.062992 0" fill-rule="evenodd"/><path fill="#ff0000" stroke="#ff0000" stroke-width="1.0" stroke-linecap="butt" d="m29.902887 35.019188l4.5380993 -1.6517334l-4.5380993 -1.6517334z" fill-rule="evenodd"/><path fill="#000000" fill-opacity="0.0" d="m550.36743 337.52493l98.5827 0" fill-rule="evenodd"/><path stroke="#0000ff" stroke-width="1.0" stroke-linejoin="round" stroke-linecap="butt" d="m550.36743 337.52493l92.5827 0" fill-rule="evenodd"/><path fill="#0000ff" stroke="#0000ff" stroke-width="1.0" stroke-linecap="butt" d="m642.95013 339.17667l4.538086 -1.6517334l-4.538086 -1.6517334z" fill-rule="evenodd"/><path fill="#000000" fill-opacity="0.0" d="m550.36743 353.98688l98.5827 0" fill-rule="evenodd"/><path stroke="#ff0000" stroke-width="1.0" stroke-linejoin="round" stroke-linecap="butt" d="m550.36743 353.98688l92.5827 0" fill-rule="evenodd"/><path fill="#ff0000" stroke="#ff0000" stroke-width="1.0" stroke-linecap="butt" d="m642.95013 355.6386l4.538086 -1.6517334l-4.538086 -1.6517334z" fill-rule="evenodd"/><path fill="#000000" fill-opacity="0.0" d="m393.40683 321.36746l160.75589 0l0 32.31494l-160.75589 0z" fill-rule="evenodd"/><path fill="#000000" d="m403.2037 340.60745l0 -7.625l1.515625 0l1.796875 5.390625q0.25 0.765625 0.375 1.140625q0.125 -0.421875 0.40625 -1.234375l1.828125 -5.296875l1.34375 0l0 7.625l-0.96875 0l0 -6.390625l-2.21875 6.390625l-0.90625 0l-2.203125 -6.5l0 6.5l-0.96875 0zm14.6892395 -0.8125q0.703125 0.484375 1.296875 0.703125l-0.296875 0.703125q-0.828125 -0.296875 -1.640625 -0.9375q-0.859375 0.46875 -1.875 0.46875q-1.046875 0 -1.890625 -0.5q-0.828125 -0.5 -1.296875 -1.390625q-0.453125 -0.90625 -0.453125 -2.046875q0 -1.125 0.453125 -2.046875q0.46875 -0.9375 1.3125 -1.421875q0.84375 -0.484375 1.890625 -0.484375q1.0625 0 1.90625 0.5q0.84375 0.5 1.28125 1.40625q0.453125 0.90625 0.453125 2.046875q0 0.9375 -0.28125 1.6875q-0.28125 0.75 -0.859375 1.3125zm-2.234375 -1.296875q0.875 0.25 1.453125 0.734375q0.890625 -0.8125 0.890625 -2.4375q0 -0.9375 -0.328125 -1.625q-0.3125 -0.6875 -0.921875 -1.0625q-0.59375 -0.390625 -1.359375 -0.390625q-1.125 0 -1.875 0.78125q-0.734375 0.765625 -0.734375 2.296875q0 1.484375 0.734375 2.28125q0.734375 0.796875 1.875 0.796875q0.546875 0 1.03125 -0.203125q-0.484375 -0.3125 -1.0 -0.4375l0.234375 -0.734375zm6.6793823 2.109375l0 -6.734375l-2.515625 0l0 -0.890625l6.046875 0l0 0.890625l-2.53125 0l0 6.734375l-1.0 0zm6.5092773 0l0 -6.734375l-2.515625 0l0 -0.890625l6.046875 0l0 0.890625l-2.53125 0l0 6.734375l-1.0 0zm6.855316 -2.296875l0 -0.9375l2.875 0l0 0.9375l-2.875 0zm8.8454895 -1.03125l-5.0625 2.15625l0 -0.9375l4.0 -1.65625l-4.0 -1.640625l0 -0.9375l5.0625 2.140625l0 0.875zm9.808746 0.65625l1.015625 0.25q-0.328125 1.25 -1.15625 1.90625q-0.8125 0.640625 -2.015625 0.640625q-1.234375 0 -2.0 -0.5q-0.765625 -0.5 -1.171875 -1.453125q-0.40625 -0.953125 -0.40625 -2.046875q0 -1.1875 0.453125 -2.078125q0.453125 -0.890625 1.296875 -1.34375q0.84375 -0.46875 1.84375 -0.46875q1.15625 0 1.9375 0.59375q0.78125 0.578125 1.078125 1.640625l-0.984375 0.234375q-0.265625 -0.84375 -0.78125 -1.21875q-0.5 -0.375 -1.265625 -0.375q-0.875 0 -1.46875 0.421875q-0.59375 0.421875 -0.828125 1.140625q-0.234375 0.703125 -0.234375 1.453125q0 0.96875 0.28125 1.703125q0.28125 0.71875 0.875 1.078125q0.59375 0.359375 1.296875 0.359375q0.84375 0 1.4375 -0.484375q0.59375 -0.5 0.796875 -1.453125zm2.1174622 2.671875l0 -7.625l0.9375 0l0 7.625l-0.9375 0zm2.0393677 -2.765625q0 -1.53125 0.84375 -2.265625q0.71875 -0.625 1.734375 -0.625q1.140625 0 1.859375 0.75q0.734375 0.75 0.734375 2.0625q0 1.0625 -0.328125 1.6875q-0.3125 0.609375 -0.921875 0.953125q-0.609375 0.328125 -1.34375 0.328125q-1.15625 0 -1.875 -0.734375q-0.703125 -0.75 -0.703125 -2.15625zm0.953125 0q0 1.0625 0.46875 1.59375q0.46875 0.53125 1.15625 0.53125q0.703125 0 1.15625 -0.53125q0.46875 -0.53125 0.46875 -1.625q0 -1.015625 -0.46875 -1.546875q-0.453125 -0.53125 -1.15625 -0.53125q-0.6875 0 -1.15625 0.53125q-0.46875 0.515625 -0.46875 1.578125zm8.942108 2.765625l0 -0.8125q-0.65625 0.9375 -1.75 0.9375q-0.5 0 -0.921875 -0.1875q-0.421875 -0.1875 -0.625 -0.46875q-0.203125 -0.28125 -0.296875 -0.703125q-0.046875 -0.265625 -0.046875 -0.875l0 -3.421875l0.9375 0l0 3.0625q0 0.734375 0.046875 1.0q0.09375 0.359375 0.375 0.578125q0.296875 0.203125 0.703125 0.203125q0.421875 0 0.796875 -0.203125q0.375 -0.21875 0.515625 -0.59375q0.15625 -0.375 0.15625 -1.078125l0 -2.96875l0.9375 0l0 5.53125l-0.828125 0zm5.8796387 0l0 -0.703125q-0.515625 0.828125 -1.546875 0.828125q-0.65625 0 -1.21875 -0.359375q-0.546875 -0.375 -0.859375 -1.015625q-0.296875 -0.65625 -0.296875 -1.5q0 -0.828125 0.28125 -1.5q0.28125 -0.6875 0.828125 -1.046875q0.546875 -0.359375 1.234375 -0.359375q0.5 0 0.890625 0.21875q0.390625 0.203125 0.625 0.546875l0 -2.734375l0.9375 0l0 7.625l-0.875 0zm-2.953125 -2.75q0 1.046875 0.4375 1.578125q0.453125 0.53125 1.0625 0.53125q0.609375 0 1.03125 -0.5q0.4375 -0.515625 0.4375 -1.53125q0 -1.140625 -0.4375 -1.671875q-0.4375 -0.53125 -1.078125 -0.53125q-0.609375 0 -1.03125 0.515625q-0.421875 0.5 -0.421875 1.609375zm8.387146 2.75l0 -7.625l2.875 0q0.75 0 1.15625 0.0625q0.5625 0.09375 0.9375 0.359375q0.390625 0.265625 0.609375 0.75q0.234375 0.46875 0.234375 1.03125q0 0.96875 -0.625 1.65625q-0.609375 0.671875 -2.234375 0.671875l-1.953125 0l0 3.09375l-1.0 0zm1.0 -4.0l1.96875 0q0.984375 0 1.390625 -0.359375q0.421875 -0.375 0.421875 -1.03125q0 -0.484375 -0.25 -0.8125q-0.234375 -0.34375 -0.640625 -0.453125q-0.25 -0.078125 -0.9375 -0.078125l-1.953125 0l0 2.734375zm9.6076355 4.0l0 -0.8125q-0.65625 0.9375 -1.75 0.9375q-0.5 0 -0.921875 -0.1875q-0.421875 -0.1875 -0.625 -0.46875q-0.203125 -0.28125 -0.296875 -0.703125q-0.046875 -0.265625 -0.046875 -0.875l0 -3.421875l0.9375 0l0 3.0625q0 0.734375 0.046875 1.0q0.09375 0.359375 0.375 0.578125q0.296875 0.203125 0.703125 0.203125q0.421875 0 0.796875 -0.203125q0.375 -0.21875 0.515625 -0.59375q0.15625 -0.375 0.15625 -1.078125l0 -2.96875l0.9375 0l0 5.53125l-0.828125 0zm3.1608582 0l-0.859375 0l0 -7.625l0.9375 0l0 2.71875q0.59375 -0.75 1.5 -0.75q0.515625 0 0.96875 0.21875q0.453125 0.203125 0.75 0.578125q0.296875 0.359375 0.453125 0.890625q0.171875 0.53125 0.171875 1.125q0 1.421875 -0.703125 2.203125q-0.703125 0.765625 -1.6875 0.765625q-0.96875 0 -1.53125 -0.8125l0 0.6875zm0 -2.796875q0 0.984375 0.265625 1.421875q0.4375 0.734375 1.1875 0.734375q0.625 0 1.0625 -0.53125q0.453125 -0.546875 0.453125 -1.59375q0 -1.078125 -0.4375 -1.59375q-0.421875 -0.515625 -1.03125 -0.515625q-0.609375 0 -1.0625 0.53125q-0.4375 0.53125 -0.4375 1.546875zm4.3640137 2.921875l2.21875 -7.890625l0.734375 0l-2.203125 7.890625l-0.75 0zm3.4450073 -2.578125l0.953125 -0.078125q0.0625 0.5625 0.3125 0.9375q0.25 0.359375 0.765625 0.59375q0.515625 0.21875 1.171875 0.21875q0.578125 0 1.015625 -0.171875q0.4375 -0.171875 0.65625 -0.46875q0.21875 -0.296875 0.21875 -0.65625q0 -0.359375 -0.21875 -0.625q-0.203125 -0.265625 -0.671875 -0.4375q-0.3125 -0.125 -1.359375 -0.375q-1.046875 -0.25 -1.46875 -0.484375q-0.546875 -0.28125 -0.828125 -0.703125q-0.265625 -0.421875 -0.265625 -0.953125q0 -0.578125 0.328125 -1.078125q0.328125 -0.5 0.953125 -0.765625q0.640625 -0.265625 1.40625 -0.265625q0.84375 0 1.484375 0.28125q0.65625 0.265625 1.0 0.796875q0.359375 0.53125 0.390625 1.203125l-0.96875 0.078125q-0.078125 -0.71875 -0.53125 -1.09375q-0.453125 -0.375 -1.328125 -0.375q-0.921875 0 -1.34375 0.34375q-0.40625 0.328125 -0.40625 0.8125q0 0.40625 0.296875 0.671875q0.28125 0.265625 1.515625 0.546875q1.234375 0.28125 1.6875 0.484375q0.671875 0.3125 0.984375 0.78125q0.3125 0.46875 0.3125 1.078125q0 0.609375 -0.34375 1.15625q-0.34375 0.53125 -1.0 0.828125q-0.65625 0.296875 -1.46875 0.296875q-1.046875 0 -1.75 -0.296875q-0.6875 -0.296875 -1.09375 -0.90625q-0.390625 -0.609375 -0.40625 -1.375zm10.9513855 2.453125l0 -0.8125q-0.65625 0.9375 -1.75 0.9375q-0.5 0 -0.921875 -0.1875q-0.421875 -0.1875 -0.625 -0.46875q-0.203125 -0.28125 -0.296875 -0.703125q-0.046875 -0.265625 -0.046875 -0.875l0 -3.421875l0.9375 0l0 3.0625q0 0.734375 0.046875 1.0q0.09375 0.359375 0.375 0.578125q0.296875 0.203125 0.703125 0.203125q0.421875 0 0.796875 -0.203125q0.375 -0.21875 0.515625 -0.59375q0.15625 -0.375 0.15625 -1.078125l0 -2.96875l0.9375 0l0 5.53125l-0.828125 0zm3.1608887 0l-0.859375 0l0 -7.625l0.9375 0l0 2.71875q0.59375 -0.75 1.5 -0.75q0.515625 0 0.96875 0.21875q0.453125 0.203125 0.75 0.578125q0.296875 0.359375 0.453125 0.890625q0.171875 0.53125 0.171875 1.125q0 1.421875 -0.703125 2.203125q-0.703125 0.765625 -1.6875 0.765625q-0.96875 0 -1.53125 -0.8125l0 0.6875zm0 -2.796875q0 0.984375 0.265625 1.421875q0.4375 0.734375 1.1875 0.734375q0.625 0 1.0625 -0.53125q0.453125 -0.546875 0.453125 -1.59375q0 -1.078125 -0.4375 -1.59375q-0.421875 -0.515625 -1.03125 -0.515625q-0.609375 0 -1.0625 0.53125q-0.4375 0.53125 -0.4375 1.546875zm8.246521 2.796875l0 -4.796875l-0.828125 0l0 -0.734375l0.828125 0l0 -0.578125q0 -0.5625 0.109375 -0.828125q0.125 -0.375 0.46875 -0.59375q0.34375 -0.234375 0.953125 -0.234375q0.390625 0 0.875 0.09375l-0.140625 0.828125q-0.296875 -0.0625 -0.546875 -0.0625q-0.421875 0 -0.609375 0.1875q-0.171875 0.1875 -0.171875 0.6875l0 0.5l1.078125 0l0 0.734375l-1.078125 0l0 4.796875l-0.9375 0zm2.7262573 0l0 -7.625l0.9375 0l0 7.625l-0.9375 0zm2.0393677 -2.765625q0 -1.53125 0.84375 -2.265625q0.71875 -0.625 1.734375 -0.625q1.140625 0 1.859375 0.75q0.734375 0.75 0.734375 2.0625q0 1.0625 -0.328125 1.6875q-0.3125 0.609375 -0.921875 0.953125q-0.609375 0.328125 -1.34375 0.328125q-1.15625 0 -1.875 -0.734375q-0.703125 -0.75 -0.703125 -2.15625zm0.953125 0q0 1.0625 0.46875 1.59375q0.46875 0.53125 1.15625 0.53125q0.703125 0 1.15625 -0.53125q0.46875 -0.53125 0.46875 -1.625q0 -1.015625 -0.46875 -1.546875q-0.453125 -0.53125 -1.15625 -0.53125q-0.6875 0 -1.15625 0.53125q-0.46875 0.515625 -0.46875 1.578125zm6.3327637 2.765625l-1.6875 -5.53125l0.96875 0l0.875 3.1875l0.328125 1.1875q0.03125 -0.078125 0.296875 -1.140625l0.875 -3.234375l0.953125 0l0.828125 3.203125l0.28125 1.0625l0.3125 -1.0625l0.953125 -3.203125l0.90625 0l-1.71875 5.53125l-0.984375 0l-0.875 -3.3125l-0.21875 -0.9375l-1.109375 4.25l-0.984375 0z" fill-rule="nonzero"/><path fill="#000000" fill-opacity="0.0" d="m393.40683 337.8294l160.75589 0l0 32.31494l-160.75589 0z" fill-rule="evenodd"/><path fill="#000000" d="m408.67245 354.39752l1.015625 0.25q-0.328125 1.25 -1.15625 1.90625q-0.8125 0.640625 -2.015625 0.640625q-1.234375 0 -2.0 -0.5q-0.765625 -0.5 -1.171875 -1.453125q-0.40625 -0.953125 -0.40625 -2.046875q0 -1.1875 0.453125 -2.078125q0.453125 -0.890625 1.296875 -1.34375q0.84375 -0.46875 1.84375 -0.46875q1.15625 0 1.9375 0.59375q0.78125 0.578125 1.078125 1.640625l-0.984375 0.234375q-0.265625 -0.84375 -0.78125 -1.21875q-0.5 -0.375 -1.265625 -0.375q-0.875 0 -1.46875 0.421875q-0.59375 0.421875 -0.828125 1.140625q-0.234375 0.703125 -0.234375 1.453125q0 0.96875 0.28125 1.703125q0.28125 0.71875 0.875 1.078125q0.59375 0.359375 1.296875 0.359375q0.84375 0 1.4375 -0.484375q0.59375 -0.5 0.796875 -1.453125zm2.1174622 2.671875l0 -7.625l0.9375 0l0 7.625l-0.9375 0zm2.0393677 -2.765625q0 -1.53125 0.84375 -2.265625q0.71875 -0.625 1.734375 -0.625q1.140625 0 1.859375 0.75q0.734375 0.75 0.734375 2.0625q0 1.0625 -0.328125 1.6875q-0.3125 0.609375 -0.921875 0.953125q-0.609375 0.328125 -1.34375 0.328125q-1.15625 0 -1.875 -0.734375q-0.703125 -0.75 -0.703125 -2.15625zm0.953125 0q0 1.0625 0.46875 1.59375q0.46875 0.53125 1.15625 0.53125q0.703125 0 1.15625 -0.53125q0.46875 -0.53125 0.46875 -1.625q0 -1.015625 -0.46875 -1.546875q-0.453125 -0.53125 -1.15625 -0.53125q-0.6875 0 -1.15625 0.53125q-0.46875 0.515625 -0.46875 1.578125zm8.942108 2.765625l0 -0.8125q-0.65625 0.9375 -1.75 0.9375q-0.5 0 -0.921875 -0.1875q-0.421875 -0.1875 -0.625 -0.46875q-0.203125 -0.28125 -0.296875 -0.703125q-0.046875 -0.265625 -0.046875 -0.875l0 -3.421875l0.9375 0l0 3.0625q0 0.734375 0.046875 1.0q0.09375 0.359375 0.375 0.578125q0.296875 0.203125 0.703125 0.203125q0.421875 0 0.796875 -0.203125q0.375 -0.21875 0.515625 -0.59375q0.15625 -0.375 0.15625 -1.078125l0 -2.96875l0.9375 0l0 5.53125l-0.828125 0zm5.8796387 0l0 -0.703125q-0.515625 0.828125 -1.546875 0.828125q-0.65625 0 -1.21875 -0.359375q-0.546875 -0.375 -0.859375 -1.015625q-0.296875 -0.65625 -0.296875 -1.5q0 -0.828125 0.28125 -1.5q0.28125 -0.6875 0.828125 -1.046875q0.546875 -0.359375 1.234375 -0.359375q0.5 0 0.890625 0.21875q0.390625 0.203125 0.625 0.546875l0 -2.734375l0.9375 0l0 7.625l-0.875 0zm-2.953125 -2.75q0 1.046875 0.4375 1.578125q0.453125 0.53125 1.0625 0.53125q0.609375 0 1.03125 -0.5q0.4375 -0.515625 0.4375 -1.53125q0 -1.140625 -0.4375 -1.671875q-0.4375 -0.53125 -1.078125 -0.53125q-0.609375 0 -1.03125 0.515625q-0.421875 0.5 -0.421875 1.609375zm8.387146 2.75l0 -7.625l2.875 0q0.75 0 1.15625 0.0625q0.5625 0.09375 0.9375 0.359375q0.390625 0.265625 0.609375 0.75q0.234375 0.46875 0.234375 1.03125q0 0.96875 -0.625 1.65625q-0.609375 0.671875 -2.234375 0.671875l-1.953125 0l0 3.09375l-1.0 0zm1.0 -4.0l1.96875 0q0.984375 0 1.390625 -0.359375q0.421875 -0.375 0.421875 -1.03125q0 -0.484375 -0.25 -0.8125q-0.234375 -0.34375 -0.640625 -0.453125q-0.25 -0.078125 -0.9375 -0.078125l-1.953125 0l0 2.734375zm9.6076355 4.0l0 -0.8125q-0.65625 0.9375 -1.75 0.9375q-0.5 0 -0.921875 -0.1875q-0.421875 -0.1875 -0.625 -0.46875q-0.203125 -0.28125 -0.296875 -0.703125q-0.046875 -0.265625 -0.046875 -0.875l0 -3.421875l0.9375 0l0 3.0625q0 0.734375 0.046875 1.0q0.09375 0.359375 0.375 0.578125q0.296875 0.203125 0.703125 0.203125q0.421875 0 0.796875 -0.203125q0.375 -0.21875 0.515625 -0.59375q0.15625 -0.375 0.15625 -1.078125l0 -2.96875l0.9375 0l0 5.53125l-0.828125 0zm3.1608582 0l-0.859375 0l0 -7.625l0.9375 0l0 2.71875q0.59375 -0.75 1.5 -0.75q0.515625 0 0.96875 0.21875q0.453125 0.203125 0.75 0.578125q0.296875 0.359375 0.453125 0.890625q0.171875 0.53125 0.171875 1.125q0 1.421875 -0.703125 2.203125q-0.703125 0.765625 -1.6875 0.765625q-0.96875 0 -1.53125 -0.8125l0 0.6875zm0 -2.796875q0 0.984375 0.265625 1.421875q0.4375 0.734375 1.1875 0.734375q0.625 0 1.0625 -0.53125q0.453125 -0.546875 0.453125 -1.59375q0 -1.078125 -0.4375 -1.59375q-0.421875 -0.515625 -1.03125 -0.515625q-0.609375 0 -1.0625 0.53125q-0.4375 0.53125 -0.4375 1.546875zm4.3640137 2.921875l2.21875 -7.890625l0.734375 0l-2.203125 7.890625l-0.75 0zm3.4450073 -2.578125l0.953125 -0.078125q0.0625 0.5625 0.3125 0.9375q0.25 0.359375 0.765625 0.59375q0.515625 0.21875 1.171875 0.21875q0.578125 0 1.015625 -0.171875q0.4375 -0.171875 0.65625 -0.46875q0.21875 -0.296875 0.21875 -0.65625q0 -0.359375 -0.21875 -0.625q-0.203125 -0.265625 -0.671875 -0.4375q-0.3125 -0.125 -1.359375 -0.375q-1.046875 -0.25 -1.46875 -0.484375q-0.546875 -0.28125 -0.828125 -0.703125q-0.265625 -0.421875 -0.265625 -0.953125q0 -0.578125 0.328125 -1.078125q0.328125 -0.5 0.953125 -0.765625q0.640625 -0.265625 1.40625 -0.265625q0.84375 0 1.484375 0.28125q0.65625 0.265625 1.0 0.796875q0.359375 0.53125 0.390625 1.203125l-0.96875 0.078125q-0.078125 -0.71875 -0.53125 -1.09375q-0.453125 -0.375 -1.328125 -0.375q-0.921875 0 -1.34375 0.34375q-0.40625 0.328125 -0.40625 0.8125q0 0.40625 0.296875 0.671875q0.28125 0.265625 1.515625 0.546875q1.234375 0.28125 1.6875 0.484375q0.671875 0.3125 0.984375 0.78125q0.3125 0.46875 0.3125 1.078125q0 0.609375 -0.34375 1.15625q-0.34375 0.53125 -1.0 0.828125q-0.65625 0.296875 -1.46875 0.296875q-1.046875 0 -1.75 -0.296875q-0.6875 -0.296875 -1.09375 -0.90625q-0.390625 -0.609375 -0.40625 -1.375zm10.9513855 2.453125l0 -0.8125q-0.65625 0.9375 -1.75 0.9375q-0.5 0 -0.921875 -0.1875q-0.421875 -0.1875 -0.625 -0.46875q-0.203125 -0.28125 -0.296875 -0.703125q-0.046875 -0.265625 -0.046875 -0.875l0 -3.421875l0.9375 0l0 3.0625q0 0.734375 0.046875 1.0q0.09375 0.359375 0.375 0.578125q0.296875 0.203125 0.703125 0.203125q0.421875 0 0.796875 -0.203125q0.375 -0.21875 0.515625 -0.59375q0.15625 -0.375 0.15625 -1.078125l0 -2.96875l0.9375 0l0 5.53125l-0.828125 0zm3.1608887 0l-0.859375 0l0 -7.625l0.9375 0l0 2.71875q0.59375 -0.75 1.5 -0.75q0.515625 0 0.96875 0.21875q0.453125 0.203125 0.75 0.578125q0.296875 0.359375 0.453125 0.890625q0.171875 0.53125 0.171875 1.125q0 1.421875 -0.703125 2.203125q-0.703125 0.765625 -1.6875 0.765625q-0.96875 0 -1.53125 -0.8125l0 0.6875zm0 -2.796875q0 0.984375 0.265625 1.421875q0.4375 0.734375 1.1875 0.734375q0.625 0 1.0625 -0.53125q0.453125 -0.546875 0.453125 -1.59375q0 -1.078125 -0.4375 -1.59375q-0.421875 -0.515625 -1.03125 -0.515625q-0.609375 0 -1.0625 0.53125q-0.4375 0.53125 -0.4375 1.546875zm7.668396 0.5l0 -0.9375l2.875 0l0 0.9375l-2.875 0zm8.8454895 -1.03125l-5.0625 2.15625l0 -0.9375l4.0 -1.65625l-4.0 -1.640625l0 -0.9375l5.0625 2.140625l0 0.875zm4.339966 3.328125l0 -7.625l1.515625 0l1.796875 5.390625q0.25 0.765625 0.375 1.140625q0.125 -0.421875 0.40625 -1.234375l1.828125 -5.296875l1.34375 0l0 7.625l-0.96875 0l0 -6.390625l-2.21875 6.390625l-0.90625 0l-2.203125 -6.5l0 6.5l-0.96875 0zm14.6892395 -0.8125q0.703125 0.484375 1.296875 0.703125l-0.296875 0.703125q-0.828125 -0.296875 -1.640625 -0.9375q-0.859375 0.46875 -1.875 0.46875q-1.046875 0 -1.890625 -0.5q-0.828125 -0.5 -1.296875 -1.390625q-0.453125 -0.90625 -0.453125 -2.046875q0 -1.125 0.453125 -2.046875q0.46875 -0.9375 1.3125 -1.421875q0.84375 -0.484375 1.890625 -0.484375q1.0625 0 1.90625 0.5q0.84375 0.5 1.28125 1.40625q0.453125 0.90625 0.453125 2.046875q0 0.9375 -0.28125 1.6875q-0.28125 0.75 -0.859375 1.3125zm-2.234375 -1.296875q0.875 0.25 1.453125 0.734375q0.890625 -0.8125 0.890625 -2.4375q0 -0.9375 -0.328125 -1.625q-0.3125 -0.6875 -0.921875 -1.0625q-0.59375 -0.390625 -1.359375 -0.390625q-1.125 0 -1.875 0.78125q-0.734375 0.765625 -0.734375 2.296875q0 1.484375 0.734375 2.28125q0.734375 0.796875 1.875 0.796875q0.546875 0 1.03125 -0.203125q-0.484375 -0.3125 -1.0 -0.4375l0.234375 -0.734375zm6.679413 2.109375l0 -6.734375l-2.515625 0l0 -0.890625l6.0468445 0l0 0.890625l-2.5312195 0l0 6.734375l-1.0 0zm6.509247 0l0 -6.734375l-2.515625 0l0 -0.890625l6.046875 0l0 0.890625l-2.53125 0l0 6.734375l-1.0 0zm7.4334717 0l0 -4.796875l-0.828125 0l0 -0.734375l0.828125 0l0 -0.578125q0 -0.5625 0.109375 -0.828125q0.125 -0.375 0.46875 -0.59375q0.34375 -0.234375 0.953125 -0.234375q0.390625 0 0.875 0.09375l-0.140625 0.828125q-0.296875 -0.0625 -0.546875 -0.0625q-0.421875 0 -0.609375 0.1875q-0.171875 0.1875 -0.171875 0.6875l0 0.5l1.078125 0l0 0.734375l-1.078125 0l0 4.796875l-0.9375 0zm2.7262573 0l0 -7.625l0.9375 0l0 7.625l-0.9375 0zm2.0393677 -2.765625q0 -1.53125 0.84375 -2.265625q0.71875 -0.625 1.734375 -0.625q1.140625 0 1.859375 0.75q0.734375 0.75 0.734375 2.0625q0 1.0625 -0.328125 1.6875q-0.3125 0.609375 -0.921875 0.953125q-0.609375 0.328125 -1.34375 0.328125q-1.15625 0 -1.875 -0.734375q-0.703125 -0.75 -0.703125 -2.15625zm0.953125 0q0 1.0625 0.46875 1.59375q0.46875 0.53125 1.15625 0.53125q0.703125 0 1.15625 -0.53125q0.46875 -0.53125 0.46875 -1.625q0 -1.015625 -0.46875 -1.546875q-0.453125 -0.53125 -1.15625 -0.53125q-0.6875 0 -1.15625 0.53125q-0.46875 0.515625 -0.46875 1.578125zm6.3327637 2.765625l-1.6875 -5.53125l0.96875 0l0.875 3.1875l0.328125 1.1875q0.03125 -0.078125 0.296875 -1.140625l0.875 -3.234375l0.953125 0l0.828125 3.203125l0.28125 1.0625l0.3125 -1.0625l0.953125 -3.203125l0.90625 0l-1.71875 5.53125l-0.984375 0l-0.875 -3.3125l-0.21875 -0.9375l-1.109375 4.25l-0.984375 0z" fill-rule="nonzero"/><path fill="#ffffff" d="m279.18896 132.93192l0 0c0 -4.2125244 3.4149475 -7.6274567 7.627472 -7.6274567l141.06006 0c2.0229187 0 3.9629822 0.8036041 5.393402 2.2340317c1.4304504 1.4304276 2.2340393 3.370491 2.2340393 5.393425l0 30.50888c0 4.2125244 -3.414917 7.6274414 -7.6274414 7.6274414l-141.06006 0c-4.2125244 0 -7.627472 -3.414917 -7.627472 -7.6274414z" fill-rule="evenodd"/><path stroke="#000000" stroke-width="1.0" stroke-linejoin="round" stroke-linecap="butt" d="m279.18896 132.93192l0 0c0 -4.2125244 3.4149475 -7.6274567 7.627472 -7.6274567l141.06006 0c2.0229187 0 3.9629822 0.8036041 5.393402 2.2340317c1.4304504 1.4304276 2.2340393 3.370491 2.2340393 5.393425l0 30.50888c0 4.2125244 -3.414917 7.6274414 -7.6274414 7.6274414l-141.06006 0c-4.2125244 0 -7.627472 -3.414917 -7.627472 -7.6274414z" fill-rule="evenodd"/><path fill="#000000" d="m298.61096 155.79886q-0.984375 -1.234375 -1.65625 -2.875q-0.65625 -1.640625 -0.65625 -3.390625q0 -1.546875 0.5 -2.96875q0.578125 -1.640625 1.8125 -3.28125l0.828125 0q-0.78125 1.359375 -1.03125 1.9375q-0.40625 0.890625 -0.625 1.875q-0.28125 1.21875 -0.28125 2.4375q0 3.140625 1.9375 6.265625l-0.828125 0zm1.8602295 -5.3125l1.234375 -0.109375q0.140625 0.90625 0.640625 1.359375q0.5 0.453125 1.203125 0.453125q0.84375 0 1.421875 -0.640625q0.59375 -0.640625 0.59375 -1.6875q0 -1.0 -0.5625 -1.578125q-0.5625 -0.59375 -1.484375 -0.59375q-0.5625 0 -1.015625 0.265625q-0.453125 0.25 -0.71875 0.671875l-1.09375 -0.15625l0.921875 -4.890625l4.75 0l0 1.109375l-3.8125 0l-0.515625 2.5625q0.859375 -0.59375 1.796875 -0.59375q1.25 0 2.109375 0.875q0.859375 0.859375 0.859375 2.21875q0 1.296875 -0.75 2.234375q-0.921875 1.15625 -2.5 1.15625q-1.3125 0 -2.140625 -0.71875q-0.8125 -0.734375 -0.9375 -1.9375zm8.506226 5.3125l-0.828125 0q1.9375 -3.125 1.9375 -6.265625q0 -1.21875 -0.28125 -2.421875q-0.21875 -0.984375 -0.609375 -1.875q-0.265625 -0.59375 -1.046875 -1.953125l0.828125 0q1.234375 1.640625 1.8125 3.28125q0.5 1.421875 0.5 2.96875q0 1.75 -0.671875 3.390625q-0.671875 1.640625 -1.640625 2.875zm7.4851074 -2.8125l0 -9.546875l1.90625 0l2.25 6.765625q0.3125 0.9375 0.46875 1.40625q0.15625 -0.515625 0.5 -1.53125l2.28125 -6.640625l1.703125 0l0 9.546875l-1.21875 0l0 -7.984375l-2.765625 7.984375l-1.140625 0l-2.765625 -8.125l0 8.125l-1.21875 0zm15.7274475 -2.21875l1.203125 0.140625q-0.28125 1.0625 -1.0625 1.65625q-0.765625 0.578125 -1.96875 0.578125q-1.515625 0 -2.40625 -0.9375q-0.890625 -0.9375 -0.890625 -2.609375q0 -1.75 0.890625 -2.703125q0.90625 -0.96875 2.34375 -0.96875q1.390625 0 2.265625 0.9375q0.875 0.9375 0.875 2.65625q0 0.109375 0 0.3125l-5.15625 0q0.0625 1.140625 0.640625 1.75q0.578125 0.59375 1.4375 0.59375q0.65625 0 1.109375 -0.328125q0.453125 -0.34375 0.71875 -1.078125zm-3.84375 -1.90625l3.859375 0q-0.078125 -0.859375 -0.4375 -1.296875q-0.5625 -0.6875 -1.453125 -0.6875q-0.8125 0 -1.359375 0.546875q-0.546875 0.53125 -0.609375 1.4375zm6.0531006 2.0625l1.15625 -0.1875q0.109375 0.703125 0.546875 1.078125q0.453125 0.359375 1.25 0.359375q0.8125 0 1.203125 -0.328125q0.390625 -0.328125 0.390625 -0.765625q0 -0.390625 -0.359375 -0.625q-0.234375 -0.15625 -1.1875 -0.390625q-1.296875 -0.328125 -1.796875 -0.5625q-0.484375 -0.25 -0.75 -0.65625q-0.25 -0.421875 -0.25 -0.9375q0 -0.453125 0.203125 -0.84375q0.21875 -0.40625 0.578125 -0.671875q0.28125 -0.1875 0.75 -0.328125q0.46875 -0.140625 1.015625 -0.140625q0.8125 0 1.421875 0.234375q0.609375 0.234375 0.90625 0.640625q0.296875 0.390625 0.40625 1.0625l-1.140625 0.15625q-0.078125 -0.53125 -0.453125 -0.828125q-0.375 -0.3125 -1.0625 -0.3125q-0.8125 0 -1.15625 0.265625q-0.34375 0.265625 -0.34375 0.625q0 0.234375 0.140625 0.421875q0.15625 0.1875 0.453125 0.3125q0.171875 0.0625 1.03125 0.296875q1.25 0.328125 1.734375 0.546875q0.5 0.203125 0.78125 0.609375q0.28125 0.40625 0.28125 1.0q0 0.59375 -0.34375 1.109375q-0.34375 0.515625 -1.0 0.796875q-0.640625 0.28125 -1.453125 0.28125q-1.34375 0 -2.046875 -0.5625q-0.703125 -0.5625 -0.90625 -1.65625zm6.6640625 0l1.15625 -0.1875q0.109375 0.703125 0.546875 1.078125q0.453125 0.359375 1.25 0.359375q0.8125 0 1.203125 -0.328125q0.390625 -0.328125 0.390625 -0.765625q0 -0.390625 -0.359375 -0.625q-0.234375 -0.15625 -1.1875 -0.390625q-1.296875 -0.328125 -1.796875 -0.5625q-0.484375 -0.25 -0.75 -0.65625q-0.25 -0.421875 -0.25 -0.9375q0 -0.453125 0.203125 -0.84375q0.21875 -0.40625 0.578125 -0.671875q0.28125 -0.1875 0.75 -0.328125q0.46875 -0.140625 1.015625 -0.140625q0.8125 0 1.421875 0.234375q0.609375 0.234375 0.90625 0.640625q0.296875 0.390625 0.40625 1.0625l-1.140625 0.15625q-0.078125 -0.53125 -0.453125 -0.828125q-0.375 -0.3125 -1.0625 -0.3125q-0.8125 0 -1.15625 0.265625q-0.34375 0.265625 -0.34375 0.625q0 0.234375 0.140625 0.421875q0.15625 0.1875 0.453125 0.3125q0.171875 0.0625 1.03125 0.296875q1.25 0.328125 1.734375 0.546875q0.5 0.203125 0.78125 0.609375q0.28125 0.40625 0.28125 1.0q0 0.59375 -0.34375 1.109375q-0.34375 0.515625 -1.0 0.796875q-0.640625 0.28125 -1.453125 0.28125q-1.34375 0 -2.046875 -0.5625q-0.703125 -0.5625 -0.90625 -1.65625zm11.6484375 1.203125q-0.65625 0.5625 -1.265625 0.796875q-0.59375 0.21875 -1.28125 0.21875q-1.140625 0 -1.75 -0.546875q-0.609375 -0.5625 -0.609375 -1.4375q0 -0.5 0.21875 -0.921875q0.234375 -0.421875 0.609375 -0.671875q0.375 -0.25 0.84375 -0.390625q0.34375 -0.078125 1.046875 -0.171875q1.421875 -0.171875 2.09375 -0.40625q0 -0.234375 0 -0.296875q0 -0.71875 -0.328125 -1.015625q-0.453125 -0.390625 -1.34375 -0.390625q-0.8125 0 -1.21875 0.296875q-0.390625 0.28125 -0.578125 1.015625l-1.140625 -0.15625q0.15625 -0.734375 0.515625 -1.1875q0.359375 -0.453125 1.03125 -0.6875q0.671875 -0.25 1.5625 -0.25q0.890625 0 1.4375 0.203125q0.5625 0.203125 0.8125 0.53125q0.265625 0.3125 0.375 0.796875q0.046875 0.296875 0.046875 1.078125l0 1.5625q0 1.625 0.078125 2.0625q0.078125 0.4375 0.296875 0.828125l-1.21875 0q-0.1875 -0.359375 -0.234375 -0.859375zm-0.09375 -2.609375q-0.640625 0.265625 -1.921875 0.4375q-0.71875 0.109375 -1.015625 0.25q-0.296875 0.125 -0.46875 0.375q-0.15625 0.25 -0.15625 0.546875q0 0.46875 0.34375 0.78125q0.359375 0.3125 1.046875 0.3125q0.671875 0 1.203125 -0.296875q0.53125 -0.296875 0.78125 -0.8125q0.1875 -0.390625 0.1875 -1.171875l0 -0.421875zm2.7718506 4.046875l1.140625 0.15625q0.078125 0.53125 0.40625 0.78125q0.4375 0.3125 1.1875 0.3125q0.8125 0 1.25 -0.328125q0.453125 -0.3125 0.609375 -0.90625q0.09375 -0.359375 0.078125 -1.5q-0.765625 0.90625 -1.90625 0.90625q-1.4375 0 -2.21875 -1.03125q-0.78125 -1.03125 -0.78125 -2.46875q0 -0.984375 0.359375 -1.8125q0.359375 -0.84375 1.03125 -1.296875q0.6875 -0.453125 1.609375 -0.453125q1.21875 0 2.015625 0.984375l0 -0.828125l1.078125 0l0 5.96875q0 1.609375 -0.328125 2.28125q-0.328125 0.6875 -1.046875 1.078125q-0.703125 0.390625 -1.75 0.390625q-1.234375 0 -2.0 -0.5625q-0.75 -0.5625 -0.734375 -1.671875zm0.984375 -4.15625q0 1.359375 0.53125 1.984375q0.546875 0.625 1.359375 0.625q0.796875 0 1.34375 -0.625q0.546875 -0.625 0.546875 -1.953125q0 -1.265625 -0.5625 -1.90625q-0.5625 -0.640625 -1.359375 -0.640625q-0.765625 0 -1.3125 0.640625q-0.546875 0.625 -0.546875 1.875zm11.381226 1.359375l1.203125 0.140625q-0.28125 1.0625 -1.0625 1.65625q-0.765625 0.578125 -1.96875 0.578125q-1.515625 0 -2.40625 -0.9375q-0.890625 -0.9375 -0.890625 -2.609375q0 -1.75 0.890625 -2.703125q0.90625 -0.96875 2.34375 -0.96875q1.390625 0 2.265625 0.9375q0.875 0.9375 0.875 2.65625q0 0.109375 0 0.3125l-5.15625 0q0.0625 1.140625 0.640625 1.75q0.578125 0.59375 1.4375 0.59375q0.65625 0 1.109375 -0.328125q0.453125 -0.34375 0.71875 -1.078125zm-3.84375 -1.90625l3.859375 0q-0.078125 -0.859375 -0.4375 -1.296875q-0.5625 -0.6875 -1.453125 -0.6875q-0.8125 0 -1.359375 0.546875q-0.546875 0.53125 -0.609375 1.4375zm8.598541 4.125l3.65625 -9.546875l1.359375 0l3.90625 9.546875l-1.4375 0l-1.109375 -2.890625l-3.984375 0l-1.046875 2.890625l-1.34375 0zm2.75 -3.921875l3.234375 0l-1.0 -2.640625q-0.453125 -1.203125 -0.671875 -1.96875q-0.1875 0.90625 -0.515625 1.8125l-1.046875 2.796875zm11.51474 3.921875l0 -0.875q-0.65625 1.03125 -1.9375 1.03125q-0.8125 0 -1.515625 -0.453125q-0.6875 -0.453125 -1.078125 -1.265625q-0.375 -0.828125 -0.375 -1.890625q0 -1.03125 0.34375 -1.875q0.34375 -0.84375 1.03125 -1.28125q0.703125 -0.453125 1.546875 -0.453125q0.625 0 1.109375 0.265625q0.5 0.25 0.796875 0.671875l0 -3.421875l1.171875 0l0 9.546875l-1.09375 0zm-3.703125 -3.453125q0 1.328125 0.5625 1.984375q0.5625 0.65625 1.328125 0.65625q0.765625 0 1.296875 -0.625q0.53125 -0.625 0.53125 -1.90625q0 -1.421875 -0.546875 -2.078125q-0.546875 -0.671875 -1.34375 -0.671875q-0.78125 0 -1.3125 0.640625q-0.515625 0.625 -0.515625 2.0zm11.146851 2.59375q-0.65625 0.5625 -1.265625 0.796875q-0.59375 0.21875 -1.28125 0.21875q-1.140625 0 -1.75 -0.546875q-0.609375 -0.5625 -0.609375 -1.4375q0 -0.5 0.21875 -0.921875q0.234375 -0.421875 0.609375 -0.671875q0.375 -0.25 0.84375 -0.390625q0.34375 -0.078125 1.046875 -0.171875q1.421875 -0.171875 2.09375 -0.40625q0 -0.234375 0 -0.296875q0 -0.71875 -0.328125 -1.015625q-0.453125 -0.390625 -1.34375 -0.390625q-0.8125 0 -1.21875 0.296875q-0.390625 0.28125 -0.578125 1.015625l-1.140625 -0.15625q0.15625 -0.734375 0.515625 -1.1875q0.359375 -0.453125 1.03125 -0.6875q0.671875 -0.25 1.5625 -0.25q0.890625 0 1.4375 0.203125q0.5625 0.203125 0.8125 0.53125q0.265625 0.3125 0.375 0.796875q0.046875 0.296875 0.046875 1.078125l0 1.5625q0 1.625 0.078125 2.0625q0.078125 0.4375 0.296875 0.828125l-1.21875 0q-0.1875 -0.359375 -0.234375 -0.859375zm-0.09375 -2.609375q-0.640625 0.265625 -1.921875 0.4375q-0.71875 0.109375 -1.015625 0.25q-0.296875 0.125 -0.46875 0.375q-0.15625 0.25 -0.15625 0.546875q0 0.46875 0.34375 0.78125q0.359375 0.3125 1.046875 0.3125q0.671875 0 1.203125 -0.296875q0.53125 -0.296875 0.78125 -0.8125q0.1875 -0.390625 0.1875 -1.171875l0 -0.421875zm2.9906006 6.125l0 -9.5625l1.078125 0l0 0.890625q0.375 -0.53125 0.84375 -0.78125q0.484375 -0.265625 1.15625 -0.265625q0.875 0 1.546875 0.453125q0.6875 0.453125 1.03125 1.28125q0.34375 0.828125 0.34375 1.828125q0 1.046875 -0.375 1.90625q-0.375 0.84375 -1.109375 1.296875q-0.71875 0.453125 -1.53125 0.453125q-0.578125 0 -1.046875 -0.25q-0.46875 -0.25 -0.765625 -0.625l0 3.375l-1.171875 0zm1.0625 -6.078125q0 1.34375 0.53125 1.984375q0.546875 0.625 1.3125 0.625q0.78125 0 1.34375 -0.65625q0.5625 -0.65625 0.5625 -2.046875q0 -1.3125 -0.546875 -1.96875q-0.546875 -0.671875 -1.296875 -0.671875q-0.75 0 -1.328125 0.703125q-0.578125 0.703125 -0.578125 2.03125zm8.912476 2.375l0.171875 1.03125q-0.5 0.109375 -0.890625 0.109375q-0.640625 0 -1.0 -0.203125q-0.34375 -0.203125 -0.484375 -0.53125q-0.140625 -0.328125 -0.140625 -1.390625l0 -3.96875l-0.859375 0l0 -0.90625l0.859375 0l0 -1.71875l1.171875 -0.703125l0 2.421875l1.171875 0l0 0.90625l-1.171875 0l0 4.046875q0 0.5 0.046875 0.640625q0.0625 0.140625 0.203125 0.234375q0.140625 0.078125 0.40625 0.078125q0.203125 0 0.515625 -0.046875zm5.874878 -1.171875l1.203125 0.140625q-0.28125 1.0625 -1.0625 1.65625q-0.765625 0.578125 -1.96875 0.578125q-1.515625 0 -2.40625 -0.9375q-0.890625 -0.9375 -0.890625 -2.609375q0 -1.75 0.890625 -2.703125q0.90625 -0.96875 2.34375 -0.96875q1.390625 0 2.265625 0.9375q0.875 0.9375 0.875 2.65625q0 0.109375 0 0.3125l-5.15625 0q0.0625 1.140625 0.640625 1.75q0.578125 0.59375 1.4375 0.59375q0.65625 0 1.109375 -0.328125q0.453125 -0.34375 0.71875 -1.078125zm-3.84375 -1.90625l3.859375 0q-0.078125 -0.859375 -0.4375 -1.296875q-0.5625 -0.6875 -1.453125 -0.6875q-0.8125 0 -1.359375 0.546875q-0.546875 0.53125 -0.609375 1.4375zm6.5062256 4.125l0 -6.90625l1.0625 0l0 1.046875q0.40625 -0.734375 0.734375 -0.96875q0.34375 -0.234375 0.765625 -0.234375q0.59375 0 1.203125 0.375l-0.40625 1.078125q-0.4375 -0.25 -0.859375 -0.25q-0.390625 0 -0.703125 0.234375q-0.296875 0.234375 -0.421875 0.640625q-0.203125 0.625 -0.203125 1.359375l0 3.625l-1.171875 0z" fill-rule="nonzero"/><path fill="#ffffff" d="m285.4882 158.06036l143.65353 0l0 13.007874l-143.65353 0z" fill-rule="evenodd"/><path stroke="#000000" stroke-width="1.0" stroke-linejoin="round" stroke-linecap="butt" d="m285.4882 158.06036l143.65353 0l0 13.007874l-143.65353 0z" fill-rule="evenodd"/><path fill="#000000" d="m302.06152 170.5543q-0.78125 -0.984375 -1.328125 -2.296875q-0.53125 -1.3125 -0.53125 -2.71875q0 -1.234375 0.40625 -2.375q0.46875 -1.3125 1.453125 -2.625l0.65625 0q-0.625 1.09375 -0.828125 1.546875q-0.3125 0.71875 -0.5 1.5q-0.21875 0.984375 -0.21875 1.96875q0 2.5 1.546875 5.0l-0.65625 0zm1.5017395 -4.265625l0.9375 -0.125q0.15625 0.796875 0.546875 1.15625q0.390625 0.34375 0.9375 0.34375q0.65625 0 1.109375 -0.453125q0.46875 -0.46875 0.46875 -1.140625q0 -0.640625 -0.421875 -1.0625q-0.421875 -0.421875 -1.078125 -0.421875q-0.265625 0 -0.65625 0.109375l0.109375 -0.828125q0.09375 0.015625 0.140625 0.015625q0.59375 0 1.078125 -0.3125q0.484375 -0.3125 0.484375 -0.96875q0 -0.515625 -0.359375 -0.84375q-0.34375 -0.34375 -0.890625 -0.34375q-0.546875 0 -0.921875 0.34375q-0.359375 0.34375 -0.453125 1.03125l-0.9375 -0.171875q0.171875 -0.9375 0.78125 -1.453125q0.609375 -0.515625 1.5 -0.515625q0.625 0 1.15625 0.265625q0.53125 0.265625 0.796875 0.734375q0.28125 0.453125 0.28125 0.984375q0 0.484375 -0.265625 0.890625q-0.265625 0.40625 -0.78125 0.65625q0.671875 0.15625 1.046875 0.65625q0.375 0.484375 0.375 1.21875q0 1.0 -0.734375 1.703125q-0.71875 0.6875 -1.828125 0.6875q-1.0 0 -1.671875 -0.59375q-0.65625 -0.609375 -0.75 -1.5625zm6.785858 4.265625l-0.671875 0q1.5625 -2.5 1.5625 -5.0q0 -0.984375 -0.21875 -1.953125q-0.1875 -0.78125 -0.5 -1.5q-0.203125 -0.46875 -0.84375 -1.5625l0.671875 0q0.984375 1.3125 1.453125 2.625q0.390625 1.140625 0.390625 2.375q0 1.40625 -0.53125 2.71875q-0.53125 1.3125 -1.3125 2.296875zm11.462402 -4.921875l1.015625 0.25q-0.328125 1.25 -1.15625 1.90625q-0.8125 0.640625 -2.015625 0.640625q-1.234375 0 -2.0 -0.5q-0.765625 -0.5 -1.171875 -1.453125q-0.40625 -0.953125 -0.40625 -2.046875q0 -1.1875 0.453125 -2.078125q0.453125 -0.890625 1.296875 -1.34375q0.84375 -0.46875 1.84375 -0.46875q1.15625 0 1.9375 0.59375q0.78125 0.578125 1.078125 1.640625l-0.984375 0.234375q-0.265625 -0.84375 -0.78125 -1.21875q-0.5 -0.375 -1.265625 -0.375q-0.875 0 -1.46875 0.421875q-0.59375 0.421875 -0.828125 1.140625q-0.234375 0.703125 -0.234375 1.453125q0 0.96875 0.28125 1.703125q0.28125 0.71875 0.875 1.078125q0.59375 0.359375 1.296875 0.359375q0.84375 0 1.4375 -0.484375q0.59375 -0.5 0.796875 -1.453125zm2.1174622 2.671875l0 -7.625l0.9375 0l0 7.625l-0.9375 0zm2.0393677 -2.765625q0 -1.53125 0.84375 -2.265625q0.71875 -0.625 1.734375 -0.625q1.140625 0 1.859375 0.75q0.734375 0.75 0.734375 2.0625q0 1.0625 -0.328125 1.6875q-0.3125 0.609375 -0.921875 0.953125q-0.609375 0.328125 -1.34375 0.328125q-1.15625 0 -1.875 -0.734375q-0.703125 -0.75 -0.703125 -2.15625zm0.953125 0q0 1.0625 0.46875 1.59375q0.46875 0.53125 1.15625 0.53125q0.703125 0 1.15625 -0.53125q0.46875 -0.53125 0.46875 -1.625q0 -1.015625 -0.46875 -1.546875q-0.453125 -0.53125 -1.15625 -0.53125q-0.6875 0 -1.15625 0.53125q-0.46875 0.515625 -0.46875 1.578125zm8.942108 2.765625l0 -0.8125q-0.65625 0.9375 -1.75 0.9375q-0.5 0 -0.921875 -0.1875q-0.421875 -0.1875 -0.625 -0.46875q-0.203125 -0.28125 -0.296875 -0.703125q-0.046875 -0.265625 -0.046875 -0.875l0 -3.421875l0.9375 0l0 3.0625q0 0.734375 0.046875 1.0q0.09375 0.359375 0.375 0.578125q0.296875 0.203125 0.703125 0.203125q0.421875 0 0.796875 -0.203125q0.375 -0.21875 0.515625 -0.59375q0.15625 -0.375 0.15625 -1.078125l0 -2.96875l0.9375 0l0 5.53125l-0.828125 0zm5.8796387 0l0 -0.703125q-0.515625 0.828125 -1.546875 0.828125q-0.65625 0 -1.21875 -0.359375q-0.546875 -0.375 -0.859375 -1.015625q-0.296875 -0.65625 -0.296875 -1.5q0 -0.828125 0.28125 -1.5q0.28125 -0.6875 0.828125 -1.046875q0.546875 -0.359375 1.234375 -0.359375q0.5 0 0.890625 0.21875q0.390625 0.203125 0.625 0.546875l0 -2.734375l0.9375 0l0 7.625l-0.875 0zm-2.953125 -2.75q0 1.046875 0.4375 1.578125q0.453125 0.53125 1.0625 0.53125q0.609375 0 1.03125 -0.5q0.4375 -0.515625 0.4375 -1.53125q0 -1.140625 -0.4375 -1.671875q-0.4375 -0.53125 -1.078125 -0.53125q-0.609375 0 -1.03125 0.515625q-0.421875 0.5 -0.421875 1.609375zm8.387146 2.75l0 -7.625l2.875 0q0.75 0 1.15625 0.0625q0.5625 0.09375 0.9375 0.359375q0.390625 0.265625 0.609375 0.75q0.234375 0.46875 0.234375 1.03125q0 0.96875 -0.625 1.65625q-0.609375 0.671875 -2.234375 0.671875l-1.953125 0l0 3.09375l-1.0 0zm1.0 -4.0l1.96875 0q0.984375 0 1.390625 -0.359375q0.421875 -0.375 0.421875 -1.03125q0 -0.484375 -0.25 -0.8125q-0.234375 -0.34375 -0.640625 -0.453125q-0.25 -0.078125 -0.9375 -0.078125l-1.953125 0l0 2.734375zm9.6076355 4.0l0 -0.8125q-0.65625 0.9375 -1.75 0.9375q-0.5 0 -0.921875 -0.1875q-0.421875 -0.1875 -0.625 -0.46875q-0.203125 -0.28125 -0.296875 -0.703125q-0.046875 -0.265625 -0.046875 -0.875l0 -3.421875l0.9375 0l0 3.0625q0 0.734375 0.046875 1.0q0.09375 0.359375 0.375 0.578125q0.296875 0.203125 0.703125 0.203125q0.421875 0 0.796875 -0.203125q0.375 -0.21875 0.515625 -0.59375q0.15625 -0.375 0.15625 -1.078125l0 -2.96875l0.9375 0l0 5.53125l-0.828125 0zm3.1608582 0l-0.859375 0l0 -7.625l0.9375 0l0 2.71875q0.59375 -0.75 1.5 -0.75q0.515625 0 0.96875 0.21875q0.453125 0.203125 0.75 0.578125q0.296875 0.359375 0.453125 0.890625q0.171875 0.53125 0.171875 1.125q0 1.421875 -0.703125 2.203125q-0.703125 0.765625 -1.6875 0.765625q-0.96875 0 -1.53125 -0.8125l0 0.6875zm0 -2.796875q0 0.984375 0.265625 1.421875q0.4375 0.734375 1.1875 0.734375q0.625 0 1.0625 -0.53125q0.453125 -0.546875 0.453125 -1.59375q0 -1.078125 -0.4375 -1.59375q-0.421875 -0.515625 -1.03125 -0.515625q-0.609375 0 -1.0625 0.53125q-0.4375 0.53125 -0.4375 1.546875zm4.3640137 2.921875l2.21875 -7.890625l0.734375 0l-2.203125 7.890625l-0.75 0zm3.4450073 -2.578125l0.953125 -0.078125q0.0625 0.5625 0.3125 0.9375q0.25 0.359375 0.765625 0.59375q0.515625 0.21875 1.171875 0.21875q0.578125 0 1.015625 -0.171875q0.4375 -0.171875 0.65625 -0.46875q0.21875 -0.296875 0.21875 -0.65625q0 -0.359375 -0.21875 -0.625q-0.203125 -0.265625 -0.671875 -0.4375q-0.3125 -0.125 -1.359375 -0.375q-1.046875 -0.25 -1.46875 -0.484375q-0.546875 -0.28125 -0.828125 -0.703125q-0.265625 -0.421875 -0.265625 -0.953125q0 -0.578125 0.328125 -1.078125q0.328125 -0.5 0.953125 -0.765625q0.640625 -0.265625 1.40625 -0.265625q0.84375 0 1.484375 0.28125q0.65625 0.265625 1.0 0.796875q0.359375 0.53125 0.390625 1.203125l-0.96875 0.078125q-0.078125 -0.71875 -0.53125 -1.09375q-0.453125 -0.375 -1.328125 -0.375q-0.921875 0 -1.34375 0.34375q-0.40625 0.328125 -0.40625 0.8125q0 0.40625 0.296875 0.671875q0.28125 0.265625 1.515625 0.546875q1.234375 0.28125 1.6875 0.484375q0.671875 0.3125 0.984375 0.78125q0.3125 0.46875 0.3125 1.078125q0 0.609375 -0.34375 1.15625q-0.34375 0.53125 -1.0 0.828125q-0.65625 0.296875 -1.46875 0.296875q-1.046875 0 -1.75 -0.296875q-0.6875 -0.296875 -1.09375 -0.90625q-0.390625 -0.609375 -0.40625 -1.375zm10.9513855 2.453125l0 -0.8125q-0.65625 0.9375 -1.75 0.9375q-0.5 0 -0.921875 -0.1875q-0.421875 -0.1875 -0.625 -0.46875q-0.203125 -0.28125 -0.296875 -0.703125q-0.046875 -0.265625 -0.046875 -0.875l0 -3.421875l0.9375 0l0 3.0625q0 0.734375 0.046875 1.0q0.09375 0.359375 0.375 0.578125q0.296875 0.203125 0.703125 0.203125q0.421875 0 0.796875 -0.203125q0.375 -0.21875 0.515625 -0.59375q0.15625 -0.375 0.15625 -1.078125l0 -2.96875l0.9375 0l0 5.53125l-0.828125 0zm3.1608887 0l-0.859375 0l0 -7.625l0.9375 0l0 2.71875q0.59375 -0.75 1.5 -0.75q0.515625 0 0.96875 0.21875q0.453125 0.203125 0.75 0.578125q0.296875 0.359375 0.453125 0.890625q0.171875 0.53125 0.171875 1.125q0 1.421875 -0.703125 2.203125q-0.703125 0.765625 -1.6875 0.765625q-0.96875 0 -1.53125 -0.8125l0 0.6875zm0 -2.796875q0 0.984375 0.265625 1.421875q0.4375 0.734375 1.1875 0.734375q0.625 0 1.0625 -0.53125q0.453125 -0.546875 0.453125 -1.59375q0 -1.078125 -0.4375 -1.59375q-0.421875 -0.515625 -1.03125 -0.515625q-0.609375 0 -1.0625 0.53125q-0.4375 0.53125 -0.4375 1.546875zm11.637146 0.765625l0.921875 0.125q-0.15625 0.953125 -0.78125 1.5q-0.625 0.53125 -1.53125 0.53125q-1.125 0 -1.8125 -0.734375q-0.6875 -0.75 -0.6875 -2.125q0 -0.90625 0.296875 -1.578125q0.296875 -0.671875 0.890625 -1.0q0.609375 -0.34375 1.328125 -0.34375q0.890625 0 1.46875 0.46875q0.578125 0.453125 0.734375 1.28125l-0.90625 0.140625q-0.140625 -0.546875 -0.46875 -0.828125q-0.328125 -0.28125 -0.796875 -0.28125q-0.703125 0 -1.15625 0.515625q-0.4375 0.5 -0.4375 1.59375q0 1.109375 0.421875 1.625q0.4375 0.5 1.125 0.5q0.546875 0 0.90625 -0.34375q0.375 -0.34375 0.484375 -1.046875zm1.703125 2.03125l0 -7.625l0.9375 0l0 7.625l-0.9375 0zm2.3830872 -6.546875l0 -1.078125l0.9375 0l0 1.078125l-0.9375 0zm0 6.546875l0 -5.53125l0.9375 0l0 5.53125l-0.9375 0zm6.1487427 -1.78125l0.96875 0.125q-0.234375 0.84375 -0.859375 1.3125q-0.609375 0.46875 -1.578125 0.46875q-1.203125 0 -1.921875 -0.75q-0.703125 -0.75 -0.703125 -2.09375q0 -1.390625 0.71875 -2.15625q0.71875 -0.78125 1.859375 -0.78125q1.109375 0 1.8125 0.765625q0.703125 0.75 0.703125 2.125q0 0.078125 0 0.234375l-4.125 0q0.046875 0.921875 0.515625 1.40625q0.46875 0.484375 1.15625 0.484375q0.515625 0 0.875 -0.265625q0.359375 -0.28125 0.578125 -0.875zm-3.078125 -1.515625l3.09375 0q-0.0625 -0.6875 -0.359375 -1.046875q-0.453125 -0.53125 -1.15625 -0.53125q-0.640625 0 -1.09375 0.4375q-0.4375 0.421875 -0.484375 1.140625zm5.223358 3.296875l0 -5.53125l0.84375 0l0 0.796875q0.609375 -0.921875 1.75 -0.921875q0.5 0 0.921875 0.1875q0.421875 0.171875 0.625 0.46875q0.21875 0.296875 0.296875 0.6875q0.046875 0.265625 0.046875 0.921875l0 3.390625l-0.9375 0l0 -3.359375q0 -0.578125 -0.109375 -0.859375q-0.109375 -0.28125 -0.390625 -0.453125q-0.265625 -0.171875 -0.640625 -0.171875q-0.59375 0 -1.03125 0.390625q-0.4375 0.375 -0.4375 1.4375l0 3.015625l-0.9375 0zm7.9733887 -0.84375l0.125 0.828125q-0.390625 0.09375 -0.703125 0.09375q-0.5 0 -0.78125 -0.15625q-0.28125 -0.171875 -0.40625 -0.4375q-0.109375 -0.265625 -0.109375 -1.109375l0 -3.171875l-0.6875 0l0 -0.734375l0.6875 0l0 -1.359375l0.9375 -0.5625l0 1.921875l0.9375 0l0 0.734375l-0.9375 0l0 3.234375q0 0.390625 0.046875 0.515625q0.046875 0.109375 0.15625 0.1875q0.109375 0.0625 0.328125 0.0625q0.15625 0 0.40625 -0.046875z" fill-rule="nonzero"/><path fill="#000000" fill-opacity="0.0" d="m548.8425 214.64305l0 -66.456696l-113.322845 0" fill-rule="evenodd"/><path stroke="#ff0000" stroke-width="1.0" stroke-linejoin="round" stroke-linecap="butt" d="m548.8425 214.64305l0 -66.456696l-107.322845 0" fill-rule="evenodd"/><path fill="#ff0000" stroke="#ff0000" stroke-width="1.0" stroke-linecap="butt" d="m441.51968 146.53462l-4.538086 1.6517334l4.538086 1.6517334z" fill-rule="evenodd"/><path fill="#ffffff" d="m35.839893 132.94766l0 0c0 -4.2125244 3.4149284 -7.627449 7.627449 -7.627449l145.501 0c2.0229187 0 3.9629974 0.8036041 5.3934174 2.234024c1.4304199 1.4304276 2.234024 3.370491 2.234024 5.393425l0 30.50888c0 4.2125244 -3.414917 7.6274414 -7.6274414 7.6274414l-145.501 0c-4.2125206 0 -7.627449 -3.414917 -7.627449 -7.6274414z" fill-rule="evenodd"/><path stroke="#000000" stroke-width="1.0" stroke-linejoin="round" stroke-linecap="butt" d="m35.839893 132.94766l0 0c0 -4.2125244 3.4149284 -7.627449 7.627449 -7.627449l145.501 0c2.0229187 0 3.9629974 0.8036041 5.3934174 2.234024c1.4304199 1.4304276 2.234024 3.370491 2.234024 5.393425l0 30.50888c0 4.2125244 -3.414917 7.6274414 -7.6274414 7.6274414l-145.501 0c-4.2125206 0 -7.627449 -3.414917 -7.627449 -7.6274414z" fill-rule="evenodd"/><path fill="#000000" d="m60.25087 157.98273q-1.25 -1.578125 -2.125 -3.703125q-0.875 -2.140625 -0.875 -4.4375q0 -2.0 0.65625 -3.84375q0.765625 -2.140625 2.34375 -4.265625l1.09375 0q-1.015625 1.75 -1.34375 2.5q-0.515625 1.171875 -0.8125 2.4375q-0.375 1.59375 -0.375 3.1875q0 4.0625 2.53125 8.125l-1.09375 0zm10.442276 -5.109375l0 1.46875l-8.1875 0q-0.03125 -0.546875 0.171875 -1.0625q0.3125 -0.828125 1.0 -1.640625q0.6875 -0.8125 2.0 -1.875q2.015625 -1.671875 2.71875 -2.640625q0.71875 -0.96875 0.71875 -1.828125q0 -0.90625 -0.65625 -1.515625q-0.640625 -0.625 -1.671875 -0.625q-1.109375 0 -1.765625 0.65625q-0.65625 0.65625 -0.671875 1.828125l-1.5625 -0.15625q0.15625 -1.765625 1.203125 -2.671875q1.0625 -0.921875 2.828125 -0.921875q1.78125 0 2.8125 1.0q1.046875 0.984375 1.046875 2.4375q0 0.75 -0.3125 1.46875q-0.296875 0.71875 -1.0 1.515625q-0.703125 0.796875 -2.34375 2.1875q-1.375 1.140625 -1.765625 1.5625q-0.390625 0.40625 -0.640625 0.8125l6.078125 0zm3.05896 5.109375l-1.09375 0q2.53125 -4.0625 2.53125 -8.125q0 -1.59375 -0.359375 -3.15625q-0.296875 -1.265625 -0.8125 -2.4375q-0.328125 -0.765625 -1.359375 -2.53125l1.09375 0q1.59375 2.125 2.359375 4.265625q0.640625 1.84375 0.640625 3.84375q0 2.296875 -0.875 4.4375q-0.875 2.125 -2.125 3.703125zm9.725342 -3.640625l0 -12.40625l2.46875 0l2.9375 8.78125q0.40625 1.234375 0.59375 1.84375q0.21875 -0.6875 0.65625 -2.0l2.984375 -8.625l2.203125 0l0 12.40625l-1.578125 0l0 -10.375l-3.609375 10.375l-1.484375 0l-3.578125 -10.5625l0 10.5625l-1.59375 0zm23.887589 -1.328125q1.140625 0.78125 2.109375 1.15625l-0.484375 1.140625q-1.328125 -0.484375 -2.65625 -1.53125q-1.390625 0.78125 -3.046875 0.78125q-1.6875 0 -3.0625 -0.8125q-1.375 -0.8125 -2.109375 -2.28125q-0.734375 -1.484375 -0.734375 -3.328125q0 -1.828125 0.734375 -3.328125q0.75 -1.515625 2.125 -2.296875q1.375 -0.796875 3.078125 -0.796875q1.71875 0 3.09375 0.828125q1.375 0.8125 2.09375 2.28125q0.734375 1.453125 0.734375 3.3125q0 1.53125 -0.46875 2.75q-0.46875 1.21875 -1.40625 2.125zm-3.609375 -2.09375q1.421875 0.390625 2.34375 1.1875q1.453125 -1.328125 1.453125 -3.96875q0 -1.515625 -0.515625 -2.640625q-0.515625 -1.125 -1.5 -1.734375q-0.984375 -0.625 -2.21875 -0.625q-1.828125 0 -3.046875 1.25q-1.203125 1.25 -1.203125 3.75q0 2.421875 1.1875 3.71875q1.203125 1.296875 3.0625 1.296875q0.890625 0 1.65625 -0.328125q-0.765625 -0.5 -1.625 -0.71875l0.40625 -1.1875zm10.853378 3.421875l0 -10.9375l-4.09375 0l0 -1.46875l9.828125 0l0 1.46875l-4.09375 0l0 10.9375l-1.640625 0zm10.584717 0l0 -10.9375l-4.09375 0l0 -1.46875l9.828125 0l0 1.46875l-4.09375 0l0 10.9375l-1.640625 0zm17.585876 -3.296875l1.5 0.203125q-0.234375 1.546875 -1.25 2.421875q-1.015625 0.875 -2.484375 0.875q-1.84375 0 -2.96875 -1.203125q-1.125 -1.203125 -1.125 -3.453125q0 -1.46875 0.484375 -2.546875q0.484375 -1.09375 1.46875 -1.640625q0.984375 -0.546875 2.140625 -0.546875q1.46875 0 2.390625 0.75q0.9375 0.734375 1.203125 2.09375l-1.484375 0.21875q-0.203125 -0.890625 -0.75 -1.34375q-0.53125 -0.46875 -1.296875 -0.46875q-1.140625 0 -1.875 0.828125q-0.71875 0.828125 -0.71875 2.609375q0 1.8125 0.6875 2.640625q0.703125 0.8125 1.828125 0.8125q0.890625 0 1.484375 -0.546875q0.609375 -0.5625 0.765625 -1.703125zm2.7734375 3.296875l0 -12.40625l1.515625 0l0 12.40625l-1.515625 0zm3.896637 -10.65625l0 -1.75l1.515625 0l0 1.75l-1.515625 0zm0 10.65625l0 -8.984375l1.515625 0l0 8.984375l-1.515625 0zm9.990387 -2.890625l1.5625 0.1875q-0.359375 1.390625 -1.375 2.15625q-1.0 0.75 -2.5625 0.75q-1.984375 0 -3.140625 -1.203125q-1.140625 -1.21875 -1.140625 -3.421875q0 -2.265625 1.15625 -3.515625q1.171875 -1.25 3.03125 -1.25q1.8125 0 2.953125 1.234375q1.140625 1.21875 1.140625 3.4375q0 0.140625 -0.015625 0.40625l-6.703125 0q0.09375 1.484375 0.84375 2.28125q0.75 0.78125 1.875 0.78125q0.84375 0 1.4375 -0.4375q0.59375 -0.4375 0.9375 -1.40625zm-5.0 -2.46875l5.015625 0q-0.109375 -1.125 -0.578125 -1.703125q-0.734375 -0.875 -1.890625 -0.875q-1.046875 0 -1.765625 0.703125q-0.703125 0.703125 -0.78125 1.875zm8.480835 5.359375l0 -8.984375l1.375 0l0 1.28125q0.984375 -1.484375 2.859375 -1.484375q0.8125 0 1.484375 0.296875q0.6875 0.28125 1.015625 0.765625q0.34375 0.46875 0.484375 1.125q0.078125 0.421875 0.078125 1.46875l0 5.53125l-1.515625 0l0 -5.46875q0 -0.921875 -0.1875 -1.375q-0.171875 -0.46875 -0.625 -0.75q-0.453125 -0.28125 -1.0625 -0.28125q-0.96875 0 -1.671875 0.625q-0.703125 0.609375 -0.703125 2.34375l0 4.90625l-1.53125 0zm12.96521 -1.359375l0.21875 1.34375q-0.640625 0.140625 -1.15625 0.140625q-0.828125 0 -1.28125 -0.265625q-0.453125 -0.265625 -0.640625 -0.6875q-0.1875 -0.4375 -0.1875 -1.796875l0 -5.171875l-1.125 0l0 -1.1875l1.125 0l0 -2.21875l1.515625 -0.921875l0 3.140625l1.53125 0l0 1.1875l-1.53125 0l0 5.25q0 0.65625 0.078125 0.84375q0.078125 0.1875 0.25 0.296875q0.1875 0.109375 0.53125 0.109375q0.25 0 0.671875 -0.0625z" fill-rule="nonzero"/><path fill="#ffffff" d="m45.548557 160.10236l143.65355 0l0 10.960632l-143.65355 0z" fill-rule="evenodd"/><path stroke="#000000" stroke-width="1.0" stroke-linejoin="round" stroke-linecap="butt" d="m45.548557 160.10236l143.65355 0l0 10.960632l-143.65355 0z" fill-rule="evenodd"/><path fill="#000000" d="m62.121887 171.57268q-0.78125 -0.984375 -1.328125 -2.296875q-0.53125 -1.3125 -0.53125 -2.71875q0 -1.234375 0.40625 -2.375q0.46875 -1.3125 1.453125 -2.625l0.65625 0q-0.625 1.09375 -0.828125 1.546875q-0.3125 0.71875 -0.5 1.5q-0.21875 0.984375 -0.21875 1.96875q0 2.5 1.546875 5.0l-0.65625 0zm1.5017395 -4.265625l0.9375 -0.125q0.15625 0.796875 0.546875 1.15625q0.390625 0.34375 0.9375 0.34375q0.65625 0 1.109375 -0.453125q0.46875 -0.46875 0.46875 -1.140625q0 -0.640625 -0.421875 -1.0625q-0.421875 -0.421875 -1.078125 -0.421875q-0.265625 0 -0.65625 0.109375l0.109375 -0.828125q0.09375 0.015625 0.140625 0.015625q0.59375 0 1.078125 -0.3125q0.484375 -0.3125 0.484375 -0.96875q0 -0.515625 -0.359375 -0.84375q-0.34375 -0.34375 -0.890625 -0.34375q-0.546875 0 -0.921875 0.34375q-0.359375 0.34375 -0.453125 1.03125l-0.9375 -0.171875q0.171875 -0.9375 0.78125 -1.453125q0.609375 -0.515625 1.5 -0.515625q0.625 0 1.15625 0.265625q0.53125 0.265625 0.796875 0.734375q0.28125 0.453125 0.28125 0.984375q0 0.484375 -0.265625 0.890625q-0.265625 0.40625 -0.78125 0.65625q0.671875 0.15625 1.046875 0.65625q0.375 0.484375 0.375 1.21875q0 1.0 -0.734375 1.703125q-0.71875 0.6875 -1.828125 0.6875q-1.0 0 -1.671875 -0.59375q-0.65625 -0.609375 -0.75 -1.5625zm6.7858734 4.265625l-0.671875 0q1.5625 -2.5 1.5625 -5.0q0 -0.984375 -0.21875 -1.953125q-0.1875 -0.78125 -0.5 -1.5q-0.203125 -0.46875 -0.84375 -1.5625l0.671875 0q0.984375 1.3125 1.453125 2.625q0.390625 1.140625 0.390625 2.375q0 1.40625 -0.53125 2.71875q-0.53125 1.3125 -1.3125 2.296875zm11.462387 -4.921875l1.015625 0.25q-0.328125 1.25 -1.15625 1.90625q-0.8125 0.640625 -2.015625 0.640625q-1.234375 0 -2.0 -0.5q-0.765625 -0.5 -1.171875 -1.453125q-0.40625 -0.953125 -0.40625 -2.046875q0 -1.1875 0.453125 -2.078125q0.453125 -0.890625 1.296875 -1.34375q0.84375 -0.46875 1.84375 -0.46875q1.15625 0 1.9375 0.59375q0.78125 0.578125 1.078125 1.640625l-0.984375 0.234375q-0.265625 -0.84375 -0.78125 -1.21875q-0.5 -0.375 -1.265625 -0.375q-0.875 0 -1.46875 0.421875q-0.59375 0.421875 -0.828125 1.140625q-0.234375 0.703125 -0.234375 1.453125q0 0.96875 0.28125 1.703125q0.28125 0.71875 0.875 1.078125q0.59375 0.359375 1.296875 0.359375q0.84375 0 1.4375 -0.484375q0.59375 -0.5 0.796875 -1.453125zm2.1174774 2.671875l0 -7.625l0.9375 0l0 7.625l-0.9375 0zm2.0393524 -2.765625q0 -1.53125 0.84375 -2.265625q0.71875 -0.625 1.734375 -0.625q1.140625 0 1.859375 0.75q0.734375 0.75 0.734375 2.0625q0 1.0625 -0.328125 1.6875q-0.3125 0.609375 -0.921875 0.953125q-0.609375 0.328125 -1.34375 0.328125q-1.15625 0 -1.875 -0.734375q-0.703125 -0.75 -0.703125 -2.15625zm0.953125 0q0 1.0625 0.46875 1.59375q0.46875 0.53125 1.15625 0.53125q0.703125 0 1.15625 -0.53125q0.46875 -0.53125 0.46875 -1.625q0 -1.015625 -0.46875 -1.546875q-0.453125 -0.53125 -1.15625 -0.53125q-0.6875 0 -1.15625 0.53125q-0.46875 0.515625 -0.46875 1.578125zm8.942123 2.765625l0 -0.8125q-0.65625 0.9375 -1.75 0.9375q-0.5 0 -0.921875 -0.1875q-0.421875 -0.1875 -0.625 -0.46875q-0.203125 -0.28125 -0.296875 -0.703125q-0.046875 -0.265625 -0.046875 -0.875l0 -3.421875l0.9375 0l0 3.0625q0 0.734375 0.046875 1.0q0.09375 0.359375 0.375 0.578125q0.296875 0.203125 0.703125 0.203125q0.421875 0 0.796875 -0.203125q0.375 -0.21875 0.515625 -0.59375q0.15625 -0.375 0.15625 -1.078125l0 -2.96875l0.9375 0l0 5.53125l-0.828125 0zm5.8796234 0l0 -0.703125q-0.515625 0.828125 -1.546875 0.828125q-0.65625 0 -1.21875 -0.359375q-0.546875 -0.375 -0.859375 -1.015625q-0.296875 -0.65625 -0.296875 -1.5q0 -0.828125 0.28125 -1.5q0.28125 -0.6875 0.828125 -1.046875q0.546875 -0.359375 1.234375 -0.359375q0.5 0 0.890625 0.21875q0.390625 0.203125 0.625 0.546875l0 -2.734375l0.9375 0l0 7.625l-0.875 0zm-2.953125 -2.75q0 1.046875 0.4375 1.578125q0.453125 0.53125 1.0625 0.53125q0.609375 0 1.03125 -0.5q0.4375 -0.515625 0.4375 -1.53125q0 -1.140625 -0.4375 -1.671875q-0.4375 -0.53125 -1.078125 -0.53125q-0.609375 0 -1.03125 0.515625q-0.421875 0.5 -0.421875 1.609375zm8.387146 2.75l0 -7.625l2.875 0q0.75 0 1.15625 0.0625q0.5625 0.09375 0.9375 0.359375q0.390625 0.265625 0.609375 0.75q0.234375 0.46875 0.234375 1.03125q0 0.96875 -0.625 1.65625q-0.609375 0.671875 -2.234375 0.671875l-1.953125 0l0 3.09375l-1.0 0zm1.0 -4.0l1.96875 0q0.984375 0 1.390625 -0.359375q0.421875 -0.375 0.421875 -1.03125q0 -0.484375 -0.25 -0.8125q-0.234375 -0.34375 -0.640625 -0.453125q-0.25 -0.078125 -0.9375 -0.078125l-1.953125 0l0 2.734375zm9.6076355 4.0l0 -0.8125q-0.65625 0.9375 -1.75 0.9375q-0.5 0 -0.921875 -0.1875q-0.421875 -0.1875 -0.625 -0.46875q-0.203125 -0.28125 -0.296875 -0.703125q-0.046875 -0.265625 -0.046875 -0.875l0 -3.421875l0.9375 0l0 3.0625q0 0.734375 0.046875 1.0q0.09375 0.359375 0.375 0.578125q0.296875 0.203125 0.703125 0.203125q0.421875 0 0.796875 -0.203125q0.375 -0.21875 0.515625 -0.59375q0.15625 -0.375 0.15625 -1.078125l0 -2.96875l0.9375 0l0 5.53125l-0.828125 0zm3.1608734 0l-0.859375 0l0 -7.625l0.9375 0l0 2.71875q0.59375 -0.75 1.5 -0.75q0.515625 0 0.96875 0.21875q0.453125 0.203125 0.75 0.578125q0.296875 0.359375 0.453125 0.890625q0.171875 0.53125 0.171875 1.125q0 1.421875 -0.703125 2.203125q-0.703125 0.765625 -1.6875 0.765625q-0.96875 0 -1.53125 -0.8125l0 0.6875zm0 -2.796875q0 0.984375 0.265625 1.421875q0.4375 0.734375 1.1875 0.734375q0.625 0 1.0625 -0.53125q0.453125 -0.546875 0.453125 -1.59375q0 -1.078125 -0.4375 -1.59375q-0.421875 -0.515625 -1.03125 -0.515625q-0.609375 0 -1.0625 0.53125q-0.4375 0.53125 -0.4375 1.546875zm4.3639984 2.921875l2.21875 -7.890625l0.734375 0l-2.203125 7.890625l-0.75 0zm3.4450226 -2.578125l0.953125 -0.078125q0.0625 0.5625 0.3125 0.9375q0.25 0.359375 0.765625 0.59375q0.515625 0.21875 1.171875 0.21875q0.578125 0 1.015625 -0.171875q0.4375 -0.171875 0.65625 -0.46875q0.21875 -0.296875 0.21875 -0.65625q0 -0.359375 -0.21875 -0.625q-0.203125 -0.265625 -0.671875 -0.4375q-0.3125 -0.125 -1.359375 -0.375q-1.046875 -0.25 -1.46875 -0.484375q-0.546875 -0.28125 -0.828125 -0.703125q-0.265625 -0.421875 -0.265625 -0.953125q0 -0.578125 0.328125 -1.078125q0.328125 -0.5 0.953125 -0.765625q0.640625 -0.265625 1.40625 -0.265625q0.84375 0 1.484375 0.28125q0.65625 0.265625 1.0 0.796875q0.359375 0.53125 0.390625 1.203125l-0.96875 0.078125q-0.078125 -0.71875 -0.53125 -1.09375q-0.453125 -0.375 -1.328125 -0.375q-0.921875 0 -1.34375 0.34375q-0.40625 0.328125 -0.40625 0.8125q0 0.40625 0.296875 0.671875q0.28125 0.265625 1.515625 0.546875q1.234375 0.28125 1.6875 0.484375q0.671875 0.3125 0.984375 0.78125q0.3125 0.46875 0.3125 1.078125q0 0.609375 -0.34375 1.15625q-0.34375 0.53125 -1.0 0.828125q-0.65625 0.296875 -1.46875 0.296875q-1.046875 0 -1.75 -0.296875q-0.6875 -0.296875 -1.09375 -0.90625q-0.390625 -0.609375 -0.40625 -1.375zm10.9513855 2.453125l0 -0.8125q-0.65625 0.9375 -1.75 0.9375q-0.5 0 -0.921875 -0.1875q-0.421875 -0.1875 -0.625 -0.46875q-0.203125 -0.28125 -0.296875 -0.703125q-0.046875 -0.265625 -0.046875 -0.875l0 -3.421875l0.9375 0l0 3.0625q0 0.734375 0.046875 1.0q0.09375 0.359375 0.375 0.578125q0.296875 0.203125 0.703125 0.203125q0.421875 0 0.796875 -0.203125q0.375 -0.21875 0.515625 -0.59375q0.15625 -0.375 0.15625 -1.078125l0 -2.96875l0.9375 0l0 5.53125l-0.828125 0zm3.1608734 0l-0.859375 0l0 -7.625l0.9375 0l0 2.71875q0.59375 -0.75 1.5 -0.75q0.515625 0 0.96875 0.21875q0.453125 0.203125 0.75 0.578125q0.296875 0.359375 0.453125 0.890625q0.171875 0.53125 0.171875 1.125q0 1.421875 -0.703125 2.203125q-0.703125 0.765625 -1.6875 0.765625q-0.96875 0 -1.53125 -0.8125l0 0.6875zm0 -2.796875q0 0.984375 0.265625 1.421875q0.4375 0.734375 1.1875 0.734375q0.625 0 1.0625 -0.53125q0.453125 -0.546875 0.453125 -1.59375q0 -1.078125 -0.4375 -1.59375q-0.421875 -0.515625 -1.03125 -0.515625q-0.609375 0 -1.0625 0.53125q-0.4375 0.53125 -0.4375 1.546875zm11.637146 0.765625l0.921875 0.125q-0.15625 0.953125 -0.78125 1.5q-0.625 0.53125 -1.53125 0.53125q-1.125 0 -1.8125 -0.734375q-0.6875 -0.75 -0.6875 -2.125q0 -0.90625 0.296875 -1.578125q0.296875 -0.671875 0.890625 -1.0q0.609375 -0.34375 1.328125 -0.34375q0.890625 0 1.46875 0.46875q0.578125 0.453125 0.734375 1.28125l-0.90625 0.140625q-0.140625 -0.546875 -0.46875 -0.828125q-0.328125 -0.28125 -0.796875 -0.28125q-0.703125 0 -1.15625 0.515625q-0.4375 0.5 -0.4375 1.59375q0 1.109375 0.421875 1.625q0.4375 0.5 1.125 0.5q0.546875 0 0.90625 -0.34375q0.375 -0.34375 0.484375 -1.046875zm1.703125 2.03125l0 -7.625l0.9375 0l0 7.625l-0.9375 0zm2.3831024 -6.546875l0 -1.078125l0.9375 0l0 1.078125l-0.9375 0zm0 6.546875l0 -5.53125l0.9375 0l0 5.53125l-0.9375 0zm6.1487274 -1.78125l0.96875 0.125q-0.234375 0.84375 -0.859375 1.3125q-0.609375 0.46875 -1.578125 0.46875q-1.203125 0 -1.921875 -0.75q-0.703125 -0.75 -0.703125 -2.09375q0 -1.390625 0.71875 -2.15625q0.71875 -0.78125 1.859375 -0.78125q1.109375 0 1.8125 0.765625q0.703125 0.75 0.703125 2.125q0 0.078125 0 0.234375l-4.125 0q0.046875 0.921875 0.515625 1.40625q0.46875 0.484375 1.15625 0.484375q0.515625 0 0.875 -0.265625q0.359375 -0.28125 0.578125 -0.875zm-3.078125 -1.515625l3.09375 0q-0.0625 -0.6875 -0.359375 -1.046875q-0.453125 -0.53125 -1.15625 -0.53125q-0.640625 0 -1.09375 0.4375q-0.4375 0.421875 -0.484375 1.140625zm5.2233734 3.296875l0 -5.53125l0.84375 0l0 0.796875q0.609375 -0.921875 1.75 -0.921875q0.5 0 0.921875 0.1875q0.421875 0.171875 0.625 0.46875q0.21875 0.296875 0.296875 0.6875q0.046875 0.265625 0.046875 0.921875l0 3.390625l-0.9375 0l0 -3.359375q0 -0.578125 -0.109375 -0.859375q-0.109375 -0.28125 -0.390625 -0.453125q-0.265625 -0.171875 -0.640625 -0.171875q-0.59375 0 -1.03125 0.390625q-0.4375 0.375 -0.4375 1.4375l0 3.015625l-0.9375 0zm7.9733734 -0.84375l0.125 0.828125q-0.390625 0.09375 -0.703125 0.09375q-0.5 0 -0.78125 -0.15625q-0.28125 -0.171875 -0.40625 -0.4375q-0.109375 -0.265625 -0.109375 -1.109375l0 -3.171875l-0.6875 0l0 -0.734375l0.6875 0l0 -1.359375l0.9375 -0.5625l0 1.921875l0.9375 0l0 0.734375l-0.9375 0l0 3.234375q0 0.390625 0.046875 0.515625q0.046875 0.109375 0.15625 0.1875q0.109375 0.0625 0.328125 0.0625q0.15625 0 0.40625 -0.046875z" fill-rule="nonzero"/></g></svg>